<svg id="logo-mobile" xmlns="http://www.w3.org/2000/svg" width="63.782" height="63.781" viewBox="0 0 63.782 63.781">
  <circle id="Ellipse_1" data-name="Ellipse 1" cx="1.337" cy="1.337" r="1.337" transform="translate(1.696 29.749)" fill="#e52d27"/>
  <path id="Path_1" data-name="Path 1" d="M196.508,272.392c-.027,1.535-.049,3.061-.076,4.6a26.007,26.007,0,0,1-2.843,4.095,26.9,26.9,0,0,1-9.661,7.159,34.71,34.71,0,0,1-9.547-7.616A33.275,33.275,0,0,1,172,277.56v-5.032c1.134-.332,2.33-.633,3.581-.884A46.3,46.3,0,0,1,196.508,272.392Z" transform="translate(-152.5 -240.082)" fill="#e52d27"/>
  <path id="Path_2" data-name="Path 2" d="M194.717,271.257v2.3l-.01,2.3v.016l-.008.015a26.2,26.2,0,0,1-2.357,3.585c-.227.279-.453.561-.687.828l-.35.4c-.119.133-.244.263-.366.395s-.243.265-.37.392l-.38.38-.19.19-.2.184-.392.367c-.133.121-.27.237-.4.355s-.268.239-.408.351c-.279.227-.553.453-.841.672s-.574.431-.865.641c-.144.107-.295.2-.442.306s-.3.2-.453.3l-.453.291-.461.279c-.152.094-.309.181-.465.271s-.312.178-.47.262c-.315.172-.636.34-.957.5l-.485.234-.49.227-.09.041-.087-.048c-.3-.163-.594-.326-.887-.5s-.584-.34-.874-.519-.575-.358-.857-.545-.567-.378-.843-.567-.556-.389-.824-.6l-.4-.308-.4-.313c-.269-.206-.526-.427-.794-.641s-.516-.44-.769-.665-.506-.453-.748-.688l-.37-.35-.359-.359c-.243-.237-.475-.484-.707-.73s-.453-.5-.686-.752-.444-.511-.662-.772-.429-.525-.637-.794q-.624-.8-1.2-1.643l-.039-.057v-.068l.009-5.032v-.16l.153-.044q1.5-.43,3.023-.756c.255-.053.506-.113.766-.153l.764-.136c.255-.043.506-.1.765-.13l.773-.113c.515-.079,1.032-.127,1.547-.181s1.035-.087,1.552-.127l.389-.027.389-.015.778-.029c.258-.014.518-.011.778-.014l.778-.006c.519.006,1.037.022,1.555.035l.777.042c.26.015.518.025.777.05.516.043,1.034.079,1.547.146l.772.088.77.113c.514.067,1.02.162,1.534.246.255.042.509.1.763.144s.509.094.762.152l.758.166c.253.054.5.121.754.18C193.719,270.983,194.217,271.125,194.717,271.257Zm0,0c-.5-.113-1.006-.24-1.513-.34s-1.012-.207-1.519-.3c-.254-.051-.509-.09-.763-.134s-.509-.088-.765-.125c-.511-.07-1.02-.153-1.535-.207l-.769-.091-.771-.069c-.514-.053-1.028-.077-1.543-.113-.257-.02-.515-.027-.773-.037l-.772-.031c-.516-.007-1.032-.015-1.546-.012l-.773.016c-.257.007-.516.008-.773.026l-.771.041-.387.02-.384.033c-.514.046-1.027.079-1.538.148s-1.02.113-1.53.2-1.015.15-1.524.253l-.762.143c-.248.044-.5.1-.753.155q-1.509.332-2.99.772l.153-.2.009,5.032-.039-.126q.567.826,1.188,1.617.309.395.63.781c.214.256.432.512.654.761s.442.5.68.743.453.489.7.723l.355.355.363.347c.239.234.491.453.737.68s.5.441.757.659.514.431.779.635l.395.311.4.3c.265.2.542.393.812.592s.549.384.829.567.561.366.845.544.567.353.859.52.58.333.873.5l-.177-.007.484-.218.481-.227c.319-.156.635-.314.948-.482.156-.082.312-.167.467-.253s.311-.17.463-.261l.459-.269.453-.28c.152-.092.3-.192.447-.289s.3-.192.441-.295c.291-.2.583-.4.864-.62s.567-.433.84-.653c.141-.108.272-.227.408-.34s.272-.227.4-.34l.395-.358.2-.178.192-.186.382-.371c.127-.122.246-.254.37-.38s.247-.254.367-.385l.356-.4c.241-.264.465-.532.692-.808a26.223,26.223,0,0,0,2.415-3.514l-.008.029.065-2.3Z" transform="translate(-150.709 -238.947)" fill="#fff"/>
  <path id="Path_3" data-name="Path 3" d="M255.683,146.328a46.324,46.324,0,0,0-6.629-.363,51.173,51.173,0,0,0-2.3-9.21,51.841,51.841,0,0,0-2.281-5.452q.65-.074,1.326-.12c.822-.061,1.622-.1,2.41-.113a.861.861,0,0,0-.248.4.7.7,0,0,0-.283.521.18.18,0,0,1-.008.026.466.466,0,0,0-.239.3,1.307,1.307,0,0,0-.035.287.743.743,0,0,0,.014.164.508.508,0,0,0,.154.34.972.972,0,0,0,.009.113.846.846,0,0,0,.049.186c-.018.1-.04.209-.062.328l-.009.014c-.017.008-.035.017-.049.022a.578.578,0,0,0-.177.124l-.154.133v.579l.287.093a.736.736,0,0,0,.062.288.517.517,0,0,0,.34.389.76.76,0,0,0,.168.2.3.3,0,0,1,.071.076.758.758,0,0,0,.1.168l.044.061a.665.665,0,0,1,.07.107.681.681,0,0,0,.113.181,2.307,2.307,0,0,0,.534.491c.146.088.292.181.439.27l.371.238a.636.636,0,0,0,.624.032l.075-.035c.071-.036.146-.071.221-.1a1.311,1.311,0,0,1,.265-.071.56.56,0,0,0,.34.12,3.65,3.65,0,0,0,.389-.027h.053a.53.53,0,0,0,.3-.137.6.6,0,0,0,.332-.113.115.115,0,0,0,.057-.009.4.4,0,0,0,.142-.044.759.759,0,0,0,.084.018.673.673,0,0,0,.68.433l.075-.009a.651.651,0,0,1,.128,0c.044.009.088.009.129.014a1.09,1.09,0,0,0-.023.163v.227a1.02,1.02,0,0,0-.075.332l-.009.075a.706.706,0,0,0,.19.654l.04.044a1.56,1.56,0,0,0,.349.274.907.907,0,0,0,.146.195.748.748,0,0,0,.066.322.925.925,0,0,0,.151.244.477.477,0,0,0-.067.243.536.536,0,0,0,.164.381l.022.035c.009.023.023.044.031.062a.782.782,0,0,0-.282.76.092.092,0,0,1-.023.044,1.02,1.02,0,0,0-.159.518v.137a.578.578,0,0,1,0,.088.609.609,0,0,0,.274.605l.012.018a.851.851,0,0,1,.09.133.314.314,0,0,1,.031.088l.049.154c.012.053.031.1.044.151a.549.549,0,0,0,.133.207.558.558,0,0,0,.057.465v.012a1.075,1.075,0,0,1,.036.107l.017.049v.07a1.021,1.021,0,0,0,.018.3,2.175,2.175,0,0,0,.238.575.566.566,0,0,0,.133.16l.027.026a.746.746,0,0,0,.07.186c.093.168.181.332.274.5A.58.58,0,0,0,255.683,146.328Z" transform="translate(-216.754 -116.211)" fill="#fff"/>
  <path id="Path_4" data-name="Path 4" d="M288.551,113.915c-.009-.1-.027-.195-.031-.288-.009-.113-.041-.137-.142-.088a1.559,1.559,0,0,1-.265.124,1.1,1.1,0,0,1-.274.018h-.018a.5.5,0,0,0-.265.049.427.427,0,0,1-.133.052.928.928,0,0,1-.159,0c-.053,0-.113-.012-.137.058,0,.014-.026.018-.044.023a.219.219,0,0,1-.244-.113.86.86,0,0,0-.1-.124.426.426,0,0,0-.067-.049.113.113,0,0,0,.023-.159c-.023-.044-.062-.08-.088-.125a.471.471,0,0,1-.088-.128c-.018-.04-.035-.057-.079-.052a.105.105,0,0,1-.067-.018,1.255,1.255,0,0,1-.113-.146.258.258,0,0,0-.186-.128.21.21,0,0,1-.163-.119.434.434,0,0,0-.107-.107.22.22,0,0,1-.113-.159,1.7,1.7,0,0,0-.031-.227.6.6,0,0,0-.053-.151l-.012-.012c-.018-.009-.044-.014-.049-.027-.023-.093-.107-.119-.169-.172a.2.2,0,0,1-.044-.058c-.04-.1-.012-.221-.1-.309a.036.036,0,0,1,0-.031,1.437,1.437,0,0,1,.044-.163c.008-.035.012-.062,0-.079a.086.086,0,0,0-.053-.023c-.058-.014-.071-.053-.079-.1v-.066c0-.071-.04-.1-.107-.107a.1.1,0,0,1-.066-.04c-.044-.044-.088-.093-.129-.137h-.035c.014-.053.027-.107.04-.159,0-.023.018-.053.009-.071a1.7,1.7,0,0,0-.088-.185c-.053-.107-.113-.209-.172-.311-.035-.057-.079-.113-.113-.168a.151.151,0,0,1-.027-.07.279.279,0,0,0-.07-.217c-.044-.062-.084-.124-.128-.186a.1.1,0,0,0-.023-.018.306.306,0,0,1-.133-.238.841.841,0,0,1,0-.151h.023a.341.341,0,0,1,.04.062,2.116,2.116,0,0,0,.113.243c.048.079.125.177.186.265a.092.092,0,0,0,.049.032c.07.012.084-.032.079-.084-.012-.181-.031-.358-.049-.54-.008-.107-.022-.213-.035-.319H284.2c-.075,0-.154.022-.2-.067,0-.008-.018-.012-.027-.017a.35.35,0,0,0-.287-.049,1.688,1.688,0,0,0-.279.124.016.016,0,0,1-.009.014.13.13,0,0,1-.194.044.748.748,0,0,0-.39-.124.151.151,0,0,1-.084-.032.187.187,0,0,0-.238,0,.129.129,0,0,1-.16-.048.2.2,0,0,0-.075-.062,1.427,1.427,0,0,1-.453-.221.034.034,0,0,0-.022-.009.7.7,0,0,0-.434.023c-.04.017-.07.049-.113.07-.113.067-.133.113-.075.235a.2.2,0,0,1-.049.291.01.01,0,0,0-.009.009.136.136,0,0,1-.163.04.667.667,0,0,1-.1-.053.767.767,0,0,0-.517-.177.251.251,0,0,1-.253-.189.164.164,0,0,0-.137-.129.479.479,0,0,1-.088-.04c-.066-.031-.124-.07-.189-.1a.15.15,0,0,0-.164.017.2.2,0,0,1-.227,0c-.044-.031-.1-.053-.15-.084,0-.079-.009-.088-.113-.113l-.044-.014c-.075-.026-.142-.133-.113-.186a.368.368,0,0,1,.145-.186.129.129,0,0,0-.012-.227.1.1,0,0,1-.032-.177,1.04,1.04,0,0,1,.08-.067c.027-.023.052-.124.022-.146-.04-.04-.066,0-.1.027l-.012.012c-.058.036-.088.023-.1-.044a.956.956,0,0,0-.035-.113h-.128c-.014.014-.027.035-.044.04-.1.032-.2.058-.3.084a.127.127,0,0,1-.092,0c-.053-.048-.093-.017-.142,0a.331.331,0,0,1-.107,0,.09.09,0,0,0-.113.012c-.058.062-.137.053-.209.071a.093.093,0,0,1-.035-.018.371.371,0,0,0-.375,0,.721.721,0,0,1-.314.08l-.34.052a.146.146,0,0,0-.07.032.371.371,0,0,1-.256.113.236.236,0,0,0-.2.146c-.008.026-.075.044-.113.044-.113,0-.227-.018-.34-.018a.982.982,0,0,0-.16.027.147.147,0,0,1-.1-.018,1.552,1.552,0,0,1-.168-.124.127.127,0,0,0-.154-.014.2.2,0,0,0-.044.1,2.268,2.268,0,0,1-.088.287.362.362,0,0,1-.265.19.321.321,0,0,0-.227.113,1.192,1.192,0,0,0-.221.34c-.023.061-.067.113-.093.177a.212.212,0,0,0,.031.247.107.107,0,0,1,0,.163l-.184.158a2.667,2.667,0,0,1-.212.212.254.254,0,0,1-.159.071.263.263,0,0,0-.248.159.02.02,0,0,0,0,.014c-.036.062-.076.124-.107.186a.363.363,0,0,1-.119.137.417.417,0,0,0-.13.207.331.331,0,0,1-.133.217.282.282,0,0,0-.137.244.654.654,0,0,1-.12.278c-.008.018-.035.032-.057.049s-.076.027-.081.049a1.088,1.088,0,0,0-.022.2.472.472,0,0,0,.009.079c.009.044,0,.1.07.1a.107.107,0,0,1,.071.066c.012.1.008.195.022.288.009.049.031.093.044.141a.274.274,0,0,1,.018.1c-.027.151-.058.3-.088.453a.372.372,0,0,1-.027.062.122.122,0,0,0,0,.066c.023.058,0,.084-.053.107-.075.026-.15.053-.227.084-.023.009-.041.035-.062.049v.057a.567.567,0,0,1,.163.053,1,1,0,0,1,.142.186.113.113,0,0,1,.009.067.28.28,0,0,0,.014.252.1.1,0,0,1,.008.035.082.082,0,0,0,.084.084.234.234,0,0,1,.19.151.408.408,0,0,0,.088.113.68.68,0,0,1,.2.248.364.364,0,0,0,.057.084c.041.057.08.113.12.172a1.672,1.672,0,0,0,.084.154,1.7,1.7,0,0,0,.429.393c.274.169.54.34.809.509a.2.2,0,0,0,.2.009,3.183,3.183,0,0,1,.34-.151,1.222,1.222,0,0,1,.567-.1.088.088,0,0,1,.079.044c.027.032.071.071.107.071a3.918,3.918,0,0,0,.4-.032.071.071,0,0,0,.058-.035c.044-.075.113-.079.189-.093s.181.014.2-.113a1.116,1.116,0,0,0,.217-.014c.035,0,.066-.035.1-.044s.084-.04.113-.026a.453.453,0,0,0,.239.044.211.211,0,0,1,.2.1.545.545,0,0,1,.049.151.227.227,0,0,0,.248.177,1.372,1.372,0,0,1,.3-.009c.133.027.27-.035.4.084a.43.43,0,0,1,.141.34.14.14,0,0,1-.017.079.147.147,0,0,0-.053.128v.244a.231.231,0,0,1-.009.113.484.484,0,0,0-.07.279c-.014.113-.049.234.049.326a1,1,0,0,0,.363.274.153.153,0,0,1,.084.088.323.323,0,0,0,.133.181.257.257,0,0,1,.1.279.329.329,0,0,0,.022.159c.058.128.181.212.227.354s.062.146-.062.244c-.057.044-.048.093.009.137a.544.544,0,0,1,.079.113.587.587,0,0,0,.044.084c.027.044.08.079.088.124a.3.3,0,0,1-.075.288,1.567,1.567,0,0,1-.119.124.352.352,0,0,0-.133.376.507.507,0,0,1-.093.34.613.613,0,0,0-.093.291v.227c0,.1,0,.186.107.227a.113.113,0,0,1,.052.053,2.026,2.026,0,0,1,.164.238,1.075,1.075,0,0,1,.079.227c.026.08.049.164.075.244a.145.145,0,0,0,.044.053.316.316,0,0,1,.113.363c-.023.061-.053.128.012.185a.056.056,0,0,0,.009.032c.023.057.04.119.058.177a.871.871,0,0,1,.035.145,1.665,1.665,0,0,0,.009.3,1.756,1.756,0,0,0,.19.459c.012.023.035.035.052.053.071.07.164.128.155.247a.167.167,0,0,0,.026.071l.34.624a.189.189,0,0,1-.009.194.18.18,0,0,0-.009.262c.053.07.113.136.172.2.239.031.469.066.7.107a.1.1,0,0,1,.036,0c.017,0,.048,0,.052-.018a.113.113,0,0,1,.133-.053.208.208,0,0,1,.053,0,.376.376,0,0,0,.124,0,.359.359,0,0,1,.155,0,.546.546,0,0,0,.243.009,1.918,1.918,0,0,1,.34-.1.4.4,0,0,0,.287-.154c.009-.009.018-.014.027-.023h0c.008-.009.017-.012.026-.022a4.6,4.6,0,0,0,.633-.68.2.2,0,0,0,.031-.1c0-.2.186-.34.331-.415a.178.178,0,0,0,.08-.071,2.177,2.177,0,0,0,.061-.247.5.5,0,0,1,.04-.16.187.187,0,0,0,.032-.1.19.19,0,0,1,0-.049.094.094,0,0,0-.058-.137c-.062-.031-.067-.079-.009-.113a2.553,2.553,0,0,1,.381-.154.629.629,0,0,0,.256-.142.083.083,0,0,0,.022-.07c-.009-.213-.035-.421-.035-.633a.306.306,0,0,0-.113-.244.1.1,0,0,1-.014-.154c.079-.079.155-.16.239-.235.141-.128.287-.247.424-.38a.39.39,0,0,1,.1-.079.241.241,0,0,1,.105-.023.319.319,0,0,0,.293-.159c.049-.107.194-.169.154-.314l.009-.009a.843.843,0,0,0,.062-.177.328.328,0,0,0-.027-.142.764.764,0,0,1-.022-.084,1.345,1.345,0,0,1,.022-.177.3.3,0,0,0-.008-.227.113.113,0,0,1-.014-.066c0-.1-.014-.2-.014-.3a.113.113,0,0,0-.058-.1c-.035-.023-.084-.053-.092-.084a.777.777,0,0,0-.067-.239.294.294,0,0,1,0-.3.175.175,0,0,0-.053-.221,1.291,1.291,0,0,1-.1-.088c-.017-.018-.031-.058-.022-.071a.747.747,0,0,0,.113-.274.876.876,0,0,1,.142-.234c.035-.058.071-.12.1-.181a.135.135,0,0,1,.1-.093c.048-.009.084-.027.088-.079a.052.052,0,0,1,.031-.04.319.319,0,0,0,.181-.173,1.435,1.435,0,0,1,.194-.256,2.1,2.1,0,0,1,.579-.482.485.485,0,0,0,.124-.1c.067-.061.125-.128.19-.189.088-.093.186-.177.265-.274s.155-.227.239-.34a.33.33,0,0,0,.084-.217.126.126,0,0,1,.014-.093.985.985,0,0,0,.212-.309c0-.008.017-.012.022-.022a2.356,2.356,0,0,0,.128-.235,1.169,1.169,0,0,0,.036-.172c.035-.022.07-.04.105-.058A.226.226,0,0,0,288.551,113.915Z" transform="translate(-241.331 -94.737)" fill="#fff"/>
  <path id="Path_5" data-name="Path 5" d="M205.089,298.461v5.884a1.184,1.184,0,0,0,.045.423.255.255,0,0,0,.137.092,4.633,4.633,0,0,0,1.36.126v.113h-4.5v-.113q.492,0,.851-.034a2.06,2.06,0,0,0,.491-.086.314.314,0,0,0,.171-.126,1.134,1.134,0,0,0,.04-.395v-5.884a1.066,1.066,0,0,0-.045-.4c-.016-.031-.065-.06-.148-.092a4.679,4.679,0,0,0-1.36-.126v-.1h4.51v.1c-.328,0-.611.013-.85.035a2.169,2.169,0,0,0-.508.091l-.113.046C205.115,298.06,205.089,298.209,205.089,298.461Z" transform="translate(-179.214 -263.986)" fill="#fff"/>
  <path id="Path_6" data-name="Path 6" d="M248.369,301.786h-2.2l-.351,1.009a1.987,1.987,0,0,0-.136.654.645.645,0,0,0,.32.608,1.825,1.825,0,0,0,.9.184v.113H244v-.113a1.425,1.425,0,0,0,1.222-.594,6.465,6.465,0,0,0,.617-1.373l1.927-5.374h.227l2.469,6.7a1.023,1.023,0,0,0,.34.555,3.322,3.322,0,0,0,1.027.085v.113h-4.2v-.113a7.224,7.224,0,0,0,1.176-.062q.32-.063.32-.258l-.023-.113Zm-.057-.126-1.043-2.906-1.043,2.906Z" transform="translate(-216.337 -263.241)" fill="#fff"/>
  <path id="Path_7" data-name="Path 7" d="M317.317,297.581l.744-.651v2.488l-.091-.034a2.975,2.975,0,0,0-.833-1.676,2.1,2.1,0,0,0-1.53-.68,1.883,1.883,0,0,0-1.027.273,1.068,1.068,0,0,0-.536.969,1.165,1.165,0,0,0,.58,1,4.933,4.933,0,0,0,1.571.58,6.111,6.111,0,0,1,1.834.65,1.977,1.977,0,0,1,.706,1.711,2.153,2.153,0,0,1-.731,1.744,2.231,2.231,0,0,1-1.5.525,3.149,3.149,0,0,1-1.2-.218,2.206,2.206,0,0,1-.919-.719q-.68.9-.719.936v-3.147l.091-.011a7.969,7.969,0,0,0,.491,1.576,3.1,3.1,0,0,0,.536.839,2.284,2.284,0,0,0,1.758.651,1.542,1.542,0,0,0,.982-.354,1.262,1.262,0,0,0,.514-1.026,1.334,1.334,0,0,0-.695-1.185,6.862,6.862,0,0,0-1.668-.621,5.411,5.411,0,0,1-1.657-.667,1.764,1.764,0,0,1-.68-1.5,2.012,2.012,0,0,1,.625-1.492,2.041,2.041,0,0,1,1.482-.612,2.864,2.864,0,0,1,1.2.218A6.312,6.312,0,0,1,317.317,297.581Z" transform="translate(-277.814 -263.268)" fill="#fff"/>
  <path id="Path_8" data-name="Path 8" d="M155.581,402.426q-.5.751-1,1.5a14.1,14.1,0,0,1,8.9.071,13.725,13.725,0,0,1,5.074,3.181,12.732,12.732,0,0,0-4.648-3.824A13.035,13.035,0,0,0,155.581,402.426Z" transform="translate(-137.055 -356.536)" fill="#fff"/>
  <path id="Path_9" data-name="Path 9" d="M141.509,424.312a9.7,9.7,0,0,0-2.394-2.966c-3.365-2.773-7.759-2.371-9.828-2.18a18.386,18.386,0,0,0-4,.822q-.483.731-.965,1.465a21.653,21.653,0,0,1,5.9-1.179,15.183,15.183,0,0,1,5.289.393A13.446,13.446,0,0,1,141.509,424.312Z" transform="translate(-110.225 -371.524)" fill="#fff"/>
  <path id="Path_10" data-name="Path 10" d="M294.273,403.118l1,1.5a14.106,14.106,0,0,0-8.9.071,13.745,13.745,0,0,0-5.074,3.181,12.742,12.742,0,0,1,4.648-3.824A13.023,13.023,0,0,1,294.273,403.118Z" transform="translate(-249.409 -357.15)" fill="#fff"/>
  <path id="Path_11" data-name="Path 11" d="M283.19,425a9.723,9.723,0,0,1,2.394-2.967c3.366-2.772,7.76-2.369,9.828-2.179a18.386,18.386,0,0,1,4,.822l.965,1.465a21.655,21.655,0,0,0-5.9-1.179,15.188,15.188,0,0,0-5.29.393A13.416,13.416,0,0,0,283.19,425Z" transform="translate(-251.084 -372.136)" fill="#fff"/>
  <path id="Path_12" data-name="Path 12" d="M179.386,133.557c0,.163-.113.227-.329.254a.234.234,0,0,1-.235-.258.227.227,0,0,1,.034-.113c-.129.017-.256.037-.384.056a.259.259,0,0,1,.011.068c0,.139-.119.227-.3.227a.212.212,0,0,1-.237-.214l-.359.057a.227.227,0,0,1-.227.162.249.249,0,0,1-.189-.086c-.841.15-1.647.317-2.409.5a.2.2,0,0,1,.185.209c0,.13-.087.2-.238.2s-.2-.062-.194-.192a.214.214,0,0,1,.113-.187c-.2.048-.392.1-.587.149a.2.2,0,0,1,0,.027c0,.146-.042.194-.18.194a.17.17,0,0,1-.185-.129q-.907.241-1.725.5v.292c.022-.058.107-.108.19-.189.06.092.113.141.125.2a.2.2,0,0,1-.171.2.145.145,0,0,1-.144-.113v.715a.209.209,0,0,1,.189-.087c.044,0,.12.08.13.135a.2.2,0,0,1-.189.207.127.127,0,0,1-.13-.087v.726a.193.193,0,0,1,.192-.1.205.205,0,0,1,.128.125c.025.092-.094.215-.186.212a.137.137,0,0,1-.134-.1v.716a.194.194,0,0,1,.192-.094.2.2,0,0,1,.128.126.2.2,0,0,1-.173.212.142.142,0,0,1-.146-.1v.722a.28.28,0,0,1,.235-.105c.022.034.077.084.086.142a.2.2,0,0,1-.184.2.138.138,0,0,1-.137-.1v.781a1.2,1.2,0,0,1,.19-.2c.063.1.119.145.129.2a.209.209,0,0,1-.185.2.148.148,0,0,1-.135-.087v.713a.209.209,0,0,1,.2-.1.205.205,0,0,1,.124.13c.022.091-.113.234-.187.206a.4.4,0,0,1-.133-.1v.744a.215.215,0,0,1,.19-.092c.05,0,.1.066.2.13a1.4,1.4,0,0,1-.252.2c-.045.02-.105-.034-.136-.1v.764c.027-.062.113-.113.2-.195.06.087.113.134.125.189.017.087-.127.241-.19.206a.357.357,0,0,1-.13-.136v.778a.246.246,0,0,1,.2-.1.129.129,0,0,1,.129.146.3.3,0,0,1-.227.218,1.745,1.745,0,0,1-.093-.176v.77a.2.2,0,0,1,.176-.085c.054,0,.113.053.169.083l.007.063a.973.973,0,0,1-.209.18c-.049.024-.113-.031-.143-.1v.74a.219.219,0,0,1,.192-.1c.054.01.1.063.193.125a1.526,1.526,0,0,1-.258.209c-.015.008-.09-.074-.126-.139v.794a.2.2,0,0,1,.187-.1c.056.007.1.061.194.113a1.321,1.321,0,0,1-.237.215c-.049.026-.113-.029-.144-.1v.765a.178.178,0,0,1,.178-.122c.048,0,.1.069.146.108a.932.932,0,0,1-.183.209c-.018.012-.093-.062-.142-.1v.755a.207.207,0,0,1,.188-.093c.054.007.1.061.2.121-.113.094-.175.193-.257.212s-.113-.043-.129-.113v.735a.28.28,0,0,1,.227-.1c.022.026.078.067.094.12.023.073-.113.227-.184.22a.136.136,0,0,1-.136-.113v.8c.027-.063.113-.113.188-.2a.817.817,0,0,1,.13.184c.018.079-.113.221-.188.215a.145.145,0,0,1-.13-.1v.617c.587-.179,1.212-.351,1.854-.519a.175.175,0,0,1-.143-.171.22.22,0,0,1,.213-.192.162.162,0,0,1,.167.187.187.187,0,0,1-.042.125c.171-.043.34-.088.514-.13v-.014a.243.243,0,0,1,.247-.189.2.2,0,0,1,.155.113c.98-.227,2.016-.438,3.1-.616a.227.227,0,0,1-.074-.155.279.279,0,0,1,.3-.271.227.227,0,0,1,.245.248.279.279,0,0,1-.02.1l.374-.056a.237.237,0,0,1-.007-.041.262.262,0,0,1,.294-.269.245.245,0,0,1,.247.238l.316-.042a.263.263,0,0,1,.26-.2.309.309,0,0,1,.24.135c.135-.016.275-.026.412-.041a.3.3,0,0,1,.237-.113.27.27,0,0,1,.2.068c.2-.02.4-.043.605-.06a.273.273,0,0,1,.054-.011h.023c.557-.045,1.122-.084,1.7-.113.221-.009.438-.014.659-.023-.015-.093-.032-.192-.048-.286a.375.375,0,0,1-.041-.166c0-.012.007-.024.008-.036-.084-.508-.173-1.026-.275-1.56a.32.32,0,0,1-.3.18.282.282,0,0,1-.282-.3.312.312,0,0,1,.34-.34.272.272,0,0,1,.158.05c-.023-.113-.044-.227-.067-.332a.34.34,0,0,1-.164.039.287.287,0,0,1-.266-.319.3.3,0,0,1,.307-.315c-.016-.078-.034-.156-.051-.235a.286.286,0,0,1-.256-.315.31.31,0,0,1,.13-.258c-.036-.156-.074-.315-.113-.474h0q-.19-.8-.409-1.637a.347.347,0,0,1-.227.073.285.285,0,0,1-.269-.316.313.313,0,0,1,.34-.316h0l-.071-.253h-.009a.294.294,0,0,1-.261-.324.3.3,0,0,1,.113-.238q-.192-.667-.406-1.349a.347.347,0,0,1-.287.128.289.289,0,1,1,.023-.577.406.406,0,0,1,.124.018c-.034-.105-.069-.209-.1-.313h-.04a.282.282,0,0,1-.29-.281.266.266,0,0,1,.155-.252q-.235-.7-.478-1.36a.313.313,0,0,1-.282.158.265.265,0,0,1-.253-.28.269.269,0,0,1,.3-.292.411.411,0,0,1,.09.015c-.039-.1-.078-.2-.113-.306H180.8a.265.265,0,0,1-.249-.294.255.255,0,0,1,.076-.207q-.26-.668-.525-1.306a.314.314,0,0,1-.161.048.287.287,0,0,1-.261-.266.255.255,0,0,1,.234-.237l-.01-.024c-.2.022-.387.049-.58.073A.214.214,0,0,1,179.386,133.557Zm-5.512,1.552c.113,0,.168.071.167.2s-.044.181-.177.181-.207-.063-.2-.177A.219.219,0,0,1,173.874,135.109Zm0,.864a.162.162,0,0,1,.166.189c0,.15-.036.184-.187.183s-.2-.051-.2-.168a.227.227,0,0,1,.22-.2Zm0,2.613c.113,0,.164.073.163.209s-.076.156-.18.159c-.124,0-.2-.066-.2-.167a.219.219,0,0,1,.227-.2Zm-.218-.653a.227.227,0,0,1,.209-.213c.113,0,.172.068.173.212.018.113-.067.154-.172.162a.175.175,0,0,1-.21-.161Zm.227,1.54a.153.153,0,0,1,.163.178c0,.136-.058.19-.187.188s-.2-.07-.2-.166A.217.217,0,0,1,173.883,139.473Zm-.856-4.345c.12.008.159.093.161.2s-.026.162-.113.162a.264.264,0,0,1-.266-.2c-.007-.085.1-.168.213-.16Zm.162,1.065c0,.086-.026.153-.133.152a.244.244,0,0,1-.245-.194.2.2,0,0,1,.2-.161c.1,0,.169.079.168.2Zm-.17.68c.1,0,.168.083.171.245-.027.023-.075.091-.133.1a.234.234,0,0,1-.247-.188c-.007-.08.1-.159.2-.159Zm.17,1.113c-.028.023-.076.088-.134.1a.227.227,0,0,1-.245-.19c0-.08.1-.156.211-.154s.161.08.162.246Zm-.167,3.248c.093,0,.168.091.166.245-.028.023-.075.09-.134.1a.264.264,0,0,1-.244-.193.205.205,0,0,1,.206-.154Zm-.211-.721a.193.193,0,0,1,.2-.161.167.167,0,0,1,.17.2.218.218,0,0,1-.121.146.25.25,0,0,1-.256-.184Zm.375,1.831c-.028.023-.1.113-.132.1a.567.567,0,0,1-.237-.189c-.037-.058.094-.152.2-.15s.164.079.161.241Zm-.173,2.373c.1-.008.171.079.168.238-.027.023-.074.092-.133.105-.088.022-.254-.127-.241-.2C172.827,144.747,172.92,144.722,173.013,144.716Zm0-.867a.175.175,0,0,1,.172.188c0,.082-.035.181-.127.153a.509.509,0,0,1-.244-.183c-.044-.056.085-.158.194-.16Zm.167,2c-.028.022-.113.113-.133.1a1.288,1.288,0,0,1-.237-.2.721.721,0,0,1,.21-.142C173.111,145.58,173.188,145.687,173.18,145.85Zm-.128,3.6c-.094.006-.266-.13-.238-.2s.113-.113.146-.149c.161.009.218.073.22.176,0,.08-.019.163-.128.169Zm0-.887c-.094,0-.268-.129-.239-.2s.113-.113.171-.176a.214.214,0,0,1,.195.214c0,.075-.023.151-.125.155Zm-.007-.86c-.094,0-.265-.143-.235-.207s.113-.113.178-.171a.218.218,0,0,1,.19.227c0,.073-.032.146-.132.147Zm0-.887c-.093,0-.255-.133-.24-.206.02-.113.113-.136.206-.138.113,0,.153.075.169.172-.01.079-.02.166-.132.168Zm.007-3.479c-.079.027-.256-.122-.249-.193.012-.113.105-.141.2-.152s.176.071.179.227c-.023.024-.066.094-.125.113Zm0-3.5c-.1.022-.254-.113-.245-.192.014-.113.113-.138.2-.148s.172.071.177.236c-.029.018-.076.087-.135.1Zm0-.884a.227.227,0,0,1-.24-.194.2.2,0,0,1,.215-.15c.119.01.156.094.167.246-.041.02-.091.082-.149.093Zm.831,3.133a.158.158,0,0,1,.16.185.163.163,0,0,1-.176.188.188.188,0,0,1-.205-.173A.22.22,0,0,1,173.883,142.084Zm-.227-.655a.211.211,0,0,1,.215-.2.152.152,0,0,1,.164.176c0,.135-.061.2-.186.19C173.749,141.585,173.668,141.542,173.656,141.428Zm.211,2.41c.113,0,.169.063.169.183a.162.162,0,0,1-.18.185c-.121,0-.2-.073-.2-.175a.213.213,0,0,1,.214-.2Zm-.21-.662a.209.209,0,0,1,.214-.2c.113.009.177.066.158.193s-.048.171-.178.172a.168.168,0,0,1-.189-.167Zm.2,5.391a.19.19,0,0,1-.2-.179.217.217,0,0,1,.217-.188c.113,0,.167.073.163.192s-.059.179-.175.171Zm0-.859a.186.186,0,0,1-.2-.176.234.234,0,0,1,.209-.2.167.167,0,0,1,.172.184c.007.125-.049.185-.17.187Zm-.009-.887a.179.179,0,0,1-.193-.183.227.227,0,0,1,.215-.19.164.164,0,0,1,.163.192.154.154,0,0,1-.179.177Zm-.193-1.051a.219.219,0,0,1,.219-.184c.113.006.163.074.16.193a.16.16,0,0,1-.19.176.173.173,0,0,1-.181-.189Zm.2-.7a.186.186,0,0,1-.2-.181.227.227,0,0,1,.213-.194.168.168,0,0,1,.167.19.153.153,0,0,1-.176.18Zm0-4.362a.181.181,0,0,1-.2-.168.227.227,0,0,1,.22-.205c.113.01.173.074.164.179,0,.133-.061.193-.186.189Zm.007-3.479c-.1,0-.193-.028-.2-.154a.218.218,0,0,1,.2-.213c.113,0,.177.062.178.189s-.053.18-.179.173Zm4.385-1.321a.227.227,0,0,1,.241.265.245.245,0,0,1-.271.239.256.256,0,0,1-.273-.227.277.277,0,0,1,.3-.282Zm-.3-.587a.262.262,0,0,1,.292-.269.22.22,0,0,1,.252.248.243.243,0,0,1-.274.251.253.253,0,0,1-.268-.235Zm.291,1.474a.235.235,0,0,1,.253.258.263.263,0,0,1-.28.254.257.257,0,1,1,.027-.512Zm0,.87a.227.227,0,0,1,.252.256.251.251,0,0,1-.27.246.266.266,0,0,1-.277-.227.271.271,0,0,1,.3-.285Zm-.889,2.253a.241.241,0,0,1-.241-.258.246.246,0,0,1,.279-.236c.143,0,.227.1.218.255a.272.272,0,0,1-.251.23Zm.256.614a.263.263,0,0,1-.273.246.234.234,0,0,1-.227-.244.255.255,0,0,1,.281-.251.227.227,0,0,1,.223.236Zm-.227-2.86a.227.227,0,0,1,.227.253.261.261,0,0,1-.261.241.227.227,0,0,1-.237-.241.248.248,0,0,1,.279-.262Zm-.274-.61a.244.244,0,0,1,.274-.251.215.215,0,0,1,.227.249.266.266,0,0,1-.26.245.24.24,0,0,1-.234-.253Zm.227-.646a.227.227,0,0,1-.227-.239.251.251,0,0,1,.275-.255.227.227,0,0,1,.227.256.255.255,0,0,1-.272.229Zm.06-2.224c.146,0,.218.082.215.236a.253.253,0,0,1-.27.246.227.227,0,0,1-.227-.248c0-.17.1-.248.285-.243Zm-.927,2.212a.2.2,0,0,1-.219-.227c0-.162.073-.24.227-.24a.2.2,0,0,1,.227.214.24.24,0,0,1-.231.244Zm.239.646a.253.253,0,0,1-.249.236.2.2,0,0,1-.207-.234.209.209,0,0,1,.24-.227.205.205,0,0,1,.22.215Zm-.236-1.518a.195.195,0,0,1-.218-.218c0-.154.069-.235.215-.24a.206.206,0,0,1,.241.214.227.227,0,0,1-.239.244Zm.012-1.331c.154,0,.227.066.227.207a.227.227,0,0,1-.254.24c-.137,0-.206-.085-.2-.235s.061-.219.231-.219Zm-.849,3.485c.13,0,.211.094.213.247a.173.173,0,0,1-.175.206.333.333,0,0,1-.3-.245C175.356,137.785,175.483,137.687,175.624,137.687Zm-.268-.662c0-.1.128-.2.271-.2s.205.094.205.24c0,.124-.065.2-.169.206C175.538,137.277,175.357,137.134,175.357,137.025Zm.262-2.825q.217,0,.214.238c0,.139-.059.206-.179.2a.309.309,0,0,1-.3-.253c0-.118.113-.186.263-.187Zm0,.879c.133,0,.212.092.213.246,0,.133-.056.2-.171.2-.151,0-.312-.132-.307-.255,0-.1.136-.188.27-.188Zm0,.86c.128,0,.212.1.212.251,0,.124-.066.2-.173.2a.324.324,0,0,1-.3-.246.266.266,0,0,1,.272-.2Zm0,2.614c.129,0,.207.1.205.253a.177.177,0,0,1-.178.2c-.128,0-.3-.147-.3-.253s.147-.2.283-.2Zm-.011.887a.213.213,0,0,1,.218.227c0,.129-.067.218-.175.217s-.294-.155-.294-.248.125-.192.262-.195Zm.007,3.5a.217.217,0,0,1,.21.238c0,.13-.07.213-.179.212a.383.383,0,0,1-.288-.256c0-.09.141-.195.269-.194Zm-.257-2.443c0-.1.13-.189.263-.192s.213.1.213.245c0,.122-.066.2-.168.207S175.357,140.587,175.357,140.492Zm0,1.748c0-.1.133-.188.266-.189a.213.213,0,0,1,.211.236c0,.132-.067.212-.178.211S175.357,142.335,175.357,142.24Zm.3-.6c-.113,0-.3-.163-.3-.257s.137-.195.264-.194.212.1.213.249a.181.181,0,0,1-.175.2Zm-.035,2.165a.212.212,0,0,1,.212.234c0,.134-.068.213-.178.211s-.3-.162-.3-.256.136-.189.268-.188Zm.212,1.1c0,.132-.075.215-.183.21s-.3-.17-.3-.265.144-.187.272-.185a.218.218,0,0,1,.207.24Zm-1.089-9.815a.205.205,0,0,1,.194.206c0,.13-.083.206-.232.206s-.2-.058-.2-.186a.227.227,0,0,1,.239-.227Zm0,1.752a.2.2,0,0,1,.2.215.227.227,0,0,1-.236.2.189.189,0,0,1-.195-.2.227.227,0,0,1,.234-.213Zm-.235-.67a.217.217,0,0,1,.236-.213.194.194,0,0,1,.194.218.207.207,0,0,1-.236.194.18.18,0,0,1-.195-.2Zm.431,3.492a.235.235,0,0,1-.235.2.2.2,0,0,1-.2-.187.227.227,0,0,1,.227-.227.2.2,0,0,1,.2.212Zm-.235-.68a.19.19,0,0,1-.2-.2.227.227,0,0,1,.235-.214.2.2,0,0,1,.2.214.227.227,0,0,1-.236.2Zm0,1.75a.2.2,0,0,1-.194-.205.22.22,0,0,1,.243-.206.193.193,0,0,1,.188.21.239.239,0,0,1-.24.2Zm.236.67a.234.234,0,0,1-.227.214.2.2,0,0,1-.205-.2.227.227,0,0,1,.227-.219.2.2,0,0,1,.2.2Zm-.2-3.7a.193.193,0,0,1,.2.206.211.211,0,0,1-.227.205.188.188,0,0,1-.2-.189.227.227,0,0,1,.224-.223Zm0,4.358a.2.2,0,0,1,.2.211.219.219,0,0,1-.234.2.187.187,0,0,1-.195-.184.227.227,0,0,1,.224-.226Zm.009,4.363a.2.2,0,0,1,.194.19.227.227,0,0,1-.227.22.194.194,0,0,1-.2-.2.227.227,0,0,1,.23-.215Zm-.236-.643a.227.227,0,0,1,.227-.219.193.193,0,0,1,.2.2.237.237,0,0,1-.238.215.2.2,0,0,1-.193-.194Zm.227,1.53a.192.192,0,0,1,.2.195.245.245,0,0,1-.237.219.209.209,0,0,1-.194-.207.227.227,0,0,1,.227-.207Zm-.024,1.273a.2.2,0,0,1-.2-.194.227.227,0,0,1,.227-.218.2.2,0,0,1,.2.2.238.238,0,0,1-.223.212Zm-.008-3.494a.209.209,0,0,1-.2-.205.227.227,0,0,1,.24-.207.194.194,0,0,1,.192.19.241.241,0,0,1-.237.221Zm.006-.868a.2.2,0,0,1-.2-.2.227.227,0,0,1,.232-.22.2.2,0,0,1,.2.2.227.227,0,0,1-.229.211Zm-.009-.859a.2.2,0,0,1-.192-.207.218.218,0,0,1,.243-.2.192.192,0,0,1,.187.209.246.246,0,0,1-.24.2Zm.917,2.183a.217.217,0,0,1,.217.227c0,.133-.067.219-.172.22s-.3-.163-.306-.257.133-.19.26-.19Zm.217,1.993a.185.185,0,0,1-.186.206c-.105-.007-.295-.173-.291-.271s.154-.184.274-.179a.219.219,0,0,1,.2.243Zm-.2-1.126a.214.214,0,0,1,.2.247c-.007.129-.071.2-.179.2s-.3-.168-.3-.266S175.509,146.409,175.634,146.417Zm.031,2.195a.387.387,0,0,1-.306-.253c-.007-.094.125-.192.26-.194a.215.215,0,0,1,.219.227c0,.13-.065.217-.172.219Zm.814-10.924a.2.2,0,0,1,.221.219.255.255,0,0,1-.245.24.209.209,0,0,1-.213-.227C176.243,137.754,176.319,137.687,176.479,137.687Zm-.012,3.5a.205.205,0,0,1,.234.21.26.26,0,0,1-.24.252.213.213,0,0,1-.218-.227.205.205,0,0,1,.224-.238Zm-.227-.647a.205.205,0,0,1,.227-.237.2.2,0,0,1,.227.227.262.262,0,0,1-.236.236.207.207,0,0,1-.214-.229Zm.227,4.125a.2.2,0,0,1,.227.213.271.271,0,0,1-.247.249.212.212,0,0,1-.207-.238.2.2,0,0,1,.232-.228Zm-.227-.655a.227.227,0,0,1,.453.022.262.262,0,0,1-.263.227.214.214,0,0,1-.187-.252Zm.209-.61a.219.219,0,0,1-.21-.238.227.227,0,1,1,.453-.012.266.266,0,0,1-.24.247Zm-.209,3.234a.23.23,0,0,1,.459-.017.26.26,0,0,1-.249.256.214.214,0,0,1-.206-.243Zm.227.665a.2.2,0,0,1,.227.214.269.269,0,0,1-.247.248.214.214,0,0,1-.209-.239.207.207,0,0,1,.235-.227Zm-.022,1.323a.227.227,0,1,1,.248-.257.26.26,0,0,1-.243.254Zm0-2.607a.214.214,0,0,1-.206-.24.2.2,0,0,1,.227-.227.207.207,0,0,1,.227.22.265.265,0,0,1-.243.24Zm.006-3.5a.213.213,0,0,1-.212-.235.227.227,0,1,1,.453-.016.269.269,0,0,1-.237.244Zm-.008-2.615a.207.207,0,0,1-.2-.237.2.2,0,0,1,.227-.227.206.206,0,0,1,.227.227.256.256,0,0,1-.245.23Zm0-.883a.211.211,0,0,1-.207-.237.205.205,0,0,1,.227-.227.212.212,0,0,1,.227.227.258.258,0,0,1-.239.23Zm.924-3.952a.213.213,0,0,1,.227.244.247.247,0,0,1-.265.249.227.227,0,0,1-.232-.227.246.246,0,0,1,.278-.273Zm.01,8.722a.215.215,0,0,1,.22.243.269.269,0,0,1-.271.252.243.243,0,0,1-.227-.258.251.251,0,0,1,.285-.243Zm-.048,4.858a.241.241,0,0,1-.227-.256.245.245,0,0,1,.274-.239.213.213,0,0,1,.221.238.266.266,0,0,1-.262.251Zm0-.867a.236.236,0,0,1-.227-.253.251.251,0,0,1,.273-.243.22.22,0,0,1,.227.24.263.263,0,0,1-.266.248Zm-.227-1.134a.246.246,0,0,1,.273-.24.217.217,0,0,1,.227.239.266.266,0,0,1-.266.256.238.238,0,0,1-.229-.266Zm.235-.605a.246.246,0,0,1-.236-.252.243.243,0,0,1,.269-.245.214.214,0,0,1,.227.232.273.273,0,0,1-.255.253Zm0-.891a.237.237,0,0,1-.235-.249.249.249,0,0,1,.271-.246.227.227,0,0,1,.227.237.262.262,0,0,1-.26.247Zm-.007-1.729a.234.234,0,0,1-.227-.254.254.254,0,0,1,.277-.24.227.227,0,0,1,.22.244.261.261,0,0,1-.266.239Zm-.227-1.152a.252.252,0,0,1,.287-.227.236.236,0,0,1,.21.256.272.272,0,0,1-.283.239.245.245,0,0,1-.21-.28Zm.227-.593a.247.247,0,0,1,.04-.493.212.212,0,0,1,.227.235.268.268,0,0,1-.258.243Zm0-2.632a.249.249,0,1,1,.035-.5.218.218,0,0,1,.227.243.272.272,0,0,1-.255.243Zm.907-.51c.163,0,.248.1.245.278a.262.262,0,0,1-.273.227.27.27,0,0,1-.272-.236.28.28,0,0,1,.3-.28Zm-.023,2.254a.265.265,0,0,1-.277-.227.271.271,0,0,1,.292-.275.227.227,0,0,1,.252.255.249.249,0,0,1-.263.236Zm.268.642a.265.265,0,0,1-.285.248.269.269,0,0,1-.258-.235.273.273,0,0,1,.294-.274.234.234,0,0,1,.254.249Zm-.272-1.5a.269.269,0,0,1-.272-.236.274.274,0,0,1,.3-.27.227.227,0,0,1,.246.261.256.256,0,0,1-.268.234Zm.024,2.109a.227.227,0,0,1,.248.257.256.256,0,0,1-.272.245.253.253,0,1,1,.024-.5Zm0,2.607a.227.227,0,0,1,.255.251.254.254,0,0,1-.265.252.263.263,0,0,1-.28-.24.275.275,0,0,1,.289-.269Zm-.29-.6a.279.279,0,0,1,.281-.274.236.236,0,0,1,.262.247.258.258,0,0,1-.271.262A.271.271,0,0,1,177.944,144.036Zm.277,3.731a.264.264,0,0,1-.278-.243.273.273,0,0,1,.29-.261.227.227,0,0,1,.254.238.255.255,0,0,1-.266.268Zm-.008-.884a.263.263,0,0,1-.269-.24.271.271,0,0,1,.291-.263.227.227,0,0,1,.252.243.257.257,0,0,1-.274.263Zm0-.864a.261.261,0,0,1-.264-.241.273.273,0,0,1,.286-.265.234.234,0,0,1,.257.252.261.261,0,0,1-.282.257Zm0-2.614a.264.264,0,0,1-.271-.237.273.273,0,0,1,.289-.266.244.244,0,0,1,.256.244.256.256,0,0,1-.273.262Zm0-8.741a.255.255,0,0,1-.268-.235c0-.168.1-.255.3-.252.175,0,.244.07.244.238a.247.247,0,0,1-.282.251Zm.862.907a.241.241,0,0,1-.238-.26q0-.278.3-.275a.232.232,0,0,1,.252.27.3.3,0,0,1-.313.27Zm.309.587a.3.3,0,0,1-.314.275.243.243,0,0,1-.234-.265c0-.183.1-.273.3-.271a.235.235,0,0,1,.245.265Zm-.239,2.342a.252.252,0,0,1,.239.279.321.321,0,0,1-.324.271.258.258,0,0,1-.227-.28.268.268,0,0,1,.308-.265Zm-.311-.586a.269.269,0,0,1,.287-.28.255.255,0,0,1,.26.274.306.306,0,0,1-.3.275.245.245,0,0,1-.244-.27Zm.29,1.474a.253.253,0,0,1,.256.277.316.316,0,0,1-.307.274.253.253,0,0,1-.24-.277.266.266,0,0,1,.291-.274Zm0,.86a.256.256,0,0,1,.255.279.312.312,0,0,1-.307.273.248.248,0,0,1-.24-.261.279.279,0,0,1,.294-.291Zm-.063,2.3a.251.251,0,0,1-.227-.273.268.268,0,0,1,.288-.277.251.251,0,0,1,.257.272.313.313,0,0,1-.317.278Zm.319.612a.312.312,0,0,1-.309.272.247.247,0,0,1-.237-.277.273.273,0,0,1,.292-.273.255.255,0,0,1,.255.278Zm-.317-1.474a.277.277,0,0,1,.061-.551.247.247,0,0,1,.258.27.323.323,0,0,1-.319.283Zm.053,2.061a.245.245,0,0,1,.264.265.316.316,0,0,1-.314.285.252.252,0,0,1-.232-.27.258.258,0,0,1,.283-.278Zm0,.86a.251.251,0,0,1,.261.256.3.3,0,0,1-.3.291.246.246,0,0,1-.246-.266.272.272,0,0,1,.289-.279Zm0,1.749a.252.252,0,0,1,.262.256.311.311,0,0,1-.3.295.248.248,0,0,1-.246-.27.271.271,0,0,1,.289-.279Zm-.042,1.436a.251.251,0,0,1-.244-.273.278.278,0,0,1,.288-.28.258.258,0,0,1,.26.261.312.312,0,0,1-.3.295Zm-.016-1.746a.257.257,0,0,1-.227-.277.262.262,0,0,1,.289-.273.247.247,0,0,1,.258.257.322.322,0,0,1-.317.295Zm0-8.722a.26.26,0,0,1-.227-.274c0-.181.107-.277.3-.272a.241.241,0,0,1,.247.265.325.325,0,0,1-.316.283Zm.008-2.636a.247.247,0,0,1-.237-.262c0-.187.078-.26.286-.262.176,0,.261.077.262.241a.307.307,0,0,1-.3.285Zm4.344,13.151a.285.285,0,0,1-.271-.314.309.309,0,0,1,.35-.328.27.27,0,0,1,.265.3.33.33,0,0,1-.339.343Zm.079-1.532a.287.287,0,0,1,.265.317.332.332,0,0,1-.34.331.29.29,0,0,1-.271-.329.319.319,0,0,1,.351-.319Zm-1.808,1.5a.286.286,0,0,1-.289-.283.311.311,0,0,1,.621,0c.012.16-.129.281-.326.285Zm0-3.5a.278.278,0,0,1-.287-.281.3.3,0,0,1,.3-.3.294.294,0,0,1,.314.315c0,.161-.13.266-.328.266Zm.326.579a.308.308,0,0,1-.358.286.288.288,0,0,1-.256-.288.3.3,0,0,1,.312-.294.283.283,0,0,1,.307.3Zm-.331-1.44a.286.286,0,0,1-.283-.289.311.311,0,1,1,.621.026.3.3,0,0,1-.333.264Zm.923,2.012c.179,0,.271.113.266.308a.315.315,0,0,1-.34.324.291.291,0,0,1-.265-.307.316.316,0,0,1,.344-.324Zm-.34-.561a.317.317,0,0,1,.34-.321.263.263,0,0,1,.272.3.329.329,0,0,1-.34.328.291.291,0,0,1-.269-.309Zm.278,2.948a.289.289,0,0,1-.278-.311.3.3,0,0,1,.329-.322c.183,0,.275.094.279.294a.317.317,0,0,1-.327.338Zm-.007-.884a.295.295,0,0,1-.271-.317.3.3,0,0,1,.334-.315c.183,0,.275.1.274.3a.323.323,0,0,1-.334.333Zm.007-2.624a.271.271,0,0,1-.278-.3.314.314,0,0,1,.34-.325c.173,0,.269.113.266.308a.3.3,0,0,1-.325.315Zm-.278-1.172a.306.306,0,0,1,.34-.313c.183,0,.269.1.271.3a.314.314,0,0,1-.324.331.291.291,0,0,1-.283-.32Zm.34-1.2c.176,0,.264.107.262.311a.322.322,0,0,1-.333.324.295.295,0,0,1-.275-.315.313.313,0,0,1,.361-.321Zm-.907-2.6a.295.295,0,0,1,.317.313c0,.153-.137.266-.332.266a.281.281,0,0,1-.289-.28.294.294,0,0,1,.317-.3Zm-.037,1.448a.292.292,0,0,1-.266-.292.3.3,0,0,1,.328-.295.3.3,0,0,1,.294.324c.006.15-.161.272-.346.262Zm.355.618c0,.154-.147.266-.34.265a.282.282,0,0,1-.283-.287.311.311,0,0,1,.62.022Zm-.32.544a.3.3,0,0,1,.32.313c0,.155-.134.268-.329.27a.283.283,0,0,1-.292-.278.3.3,0,0,1,.311-.306Zm.029,3.505a.277.277,0,0,1,.288.295.317.317,0,0,1-.34.283.294.294,0,0,1-.28-.294.3.3,0,0,1,.341-.286Zm-.024.855a.3.3,0,0,1,.314.307c0,.166-.137.279-.34.275a.282.282,0,0,1-.283-.274.326.326,0,0,1,.32-.309Zm-1.732,1.474a.376.376,0,0,1-.289-.323.269.269,0,0,1,.262-.247.333.333,0,0,1,.3.286.283.283,0,0,1-.266.288Zm.012-.889a.357.357,0,0,1-.3-.333.261.261,0,0,1,.275-.227.311.311,0,0,1,.295.3.285.285,0,0,1-.258.262Zm-.014-.864a.371.371,0,0,1-.289-.319.259.259,0,0,1,.274-.245.313.313,0,0,1,.3.3.283.283,0,0,1-.272.265Zm0-.882a.375.375,0,0,1-.292-.332.264.264,0,0,1,.271-.237.322.322,0,0,1,.3.3.294.294,0,0,1-.266.272Zm-.01-.868a.376.376,0,0,1-.283-.324.257.257,0,0,1,.282-.235.311.311,0,0,1,.291.291.286.286,0,0,1-.278.271Zm.811,1.755a.266.266,0,0,1-.238-.286.289.289,0,0,1,.3-.3.255.255,0,0,1,.278.27.327.327,0,0,1-.332.317Zm.34.567a.325.325,0,0,1-.312.3.272.272,0,0,1-.253-.286.306.306,0,0,1,.3-.3.263.263,0,0,1,.271.292Zm-.577-1.735a.295.295,0,0,1,.313-.3.255.255,0,0,1,.269.278.311.311,0,0,1-.313.311.268.268,0,0,1-.257-.279Zm.264-.577a.275.275,0,0,1-.264-.291.3.3,0,0,1,.319-.3.258.258,0,0,1,.264.283.317.317,0,0,1-.309.314Zm.051-4.081a.256.256,0,0,1,.266.292.314.314,0,0,1-.33.292.265.265,0,0,1-.251-.285.286.286,0,0,1,.325-.3Zm-.315-.567a.295.295,0,0,1,.315-.3.257.257,0,0,1,.266.295.322.322,0,0,1-.329.3.273.273,0,0,1-.241-.283Zm.265-.6a.27.27,0,0,1-.265-.287.286.286,0,0,1,.316-.3c.169,0,.265.108.265.295a.315.315,0,0,1-.308.295Zm.058,2.047a.255.255,0,0,1,.258.287.308.308,0,0,1-.324.3.268.268,0,0,1-.257-.292.293.293,0,0,1,.334-.289Zm.258,1.146a.317.317,0,0,1-.321.307.272.272,0,0,1-.261-.292.3.3,0,0,1,.3-.3.261.261,0,0,1,.288.289Zm-.26.6a.252.252,0,0,1,.26.285.313.313,0,0,1-.323.3.27.27,0,0,1-.258-.292.29.29,0,0,1,.333-.29Zm0-6.1c.175.006.256.1.255.285a.326.326,0,0,1-.333.291.272.272,0,0,1-.248-.29.283.283,0,0,1,.342-.282Zm-.01.86c.178,0,.266.1.265.288a.321.321,0,0,1-.3.3.274.274,0,0,1-.266-.287.28.28,0,0,1,.321-.294Zm0,9.6a.253.253,0,0,1,.264.28.314.314,0,0,1-.329.308.273.273,0,0,1-.254-.285.309.309,0,0,1,.336-.3Zm-.892-13.063a.27.27,0,1,1,.016.537.322.322,0,0,1-.3-.315c.017-.143.113-.222.3-.219Zm-.01.872a.278.278,0,1,1,.032.554.349.349,0,0,1-.3-.316.26.26,0,0,1,.287-.235Zm.035,4.027a.347.347,0,0,1-.3-.311.257.257,0,0,1,.264-.255.321.321,0,0,1,.307.3.286.286,0,0,1-.251.264Zm.268.62a.3.3,0,0,1-.277.269.375.375,0,0,1-.3-.324.258.258,0,0,1,.274-.243.315.315,0,0,1,.315.3Zm-.567-1.814a.26.26,0,0,1,.279-.239.315.315,0,0,1,.292.317.3.3,0,0,1-.28.249.364.364,0,0,1-.28-.319Zm.282-1.976a.3.3,0,0,1,.288.3.287.287,0,0,1-.277.253.34.34,0,0,1-.294-.324.258.258,0,0,1,.294-.22Zm-.007.881a.3.3,0,0,1,.3.3.283.283,0,0,1-.27.26.353.353,0,0,1-.3-.315.247.247,0,0,1,.288-.231Zm0,3.466a.328.328,0,0,1,.3.314.307.307,0,0,1-.278.256.372.372,0,0,1-.3-.323.265.265,0,0,1,.283-.238Zm0,1.75a.317.317,0,0,1,.3.3.3.3,0,0,1-.275.272.375.375,0,0,1-.3-.325.26.26,0,0,1,.285-.237Zm-.274-.617a.261.261,0,0,1,.274-.247.319.319,0,0,1,.3.3.292.292,0,0,1-.283.263.37.37,0,0,1-.278-.311Zm.266,1.5a.324.324,0,0,1,.306.295.3.3,0,0,1-.274.275.383.383,0,0,1-.3-.313.264.264,0,0,1,.278-.248Z" transform="translate(-152.455 -118.188)" fill="#fff"/>
  <path id="Path_13" data-name="Path 13" d="M78.58,107.84a25.923,25.923,0,1,1,18.333-7.592A25.926,25.926,0,0,1,78.58,107.84Zm0-51.281a25.357,25.357,0,1,0,25.36,25.355A25.387,25.387,0,0,0,78.58,56.56Z" transform="translate(-46.689 -49.644)" fill="#fff"/>
  <path id="Path_14" data-name="Path 14" d="M16.286,225.113l-.416,2.207-.219-.041c0-.051.014-.127.025-.227a.782.782,0,0,0,0-.21.27.27,0,0,0-.084-.162.364.364,0,0,0-.168-.071l-2.818-.532a.374.374,0,0,0-.175,0,.268.268,0,0,0-.145.121,1.253,1.253,0,0,0-.1.187,2.306,2.306,0,0,0-.083.22l-.219-.042.416-2.2.219.041c-.006.057-.01.128-.016.214a1.159,1.159,0,0,0,0,.227.233.233,0,0,0,.085.168.418.418,0,0,0,.169.069l2.815.532a.38.38,0,0,0,.18,0,.276.276,0,0,0,.143-.122.936.936,0,0,0,.086-.185,2.347,2.347,0,0,0,.073-.227Z" transform="translate(-10.541 -198.925)" fill="#fff"/>
  <path id="Path_15" data-name="Path 15" d="M30.233,194.831l-.181.6a.886.886,0,0,1,.295-.084.773.773,0,0,1,.292.032.7.7,0,0,1,.323.207.864.864,0,0,1,.188.347,1.428,1.428,0,0,1,.048.44,1.91,1.91,0,0,1-.087.5l-.135.444a.436.436,0,0,0,.057.1.173.173,0,0,0,.091.07.178.178,0,0,0,.2-.044.982.982,0,0,0,.16-.331c.054-.164.113-.329.173-.5s.1-.286.128-.357a1.162,1.162,0,0,1,.159-.295,1.02,1.02,0,0,1,.227-.227.793.793,0,0,1,.307-.133.72.72,0,0,1,.367.022.844.844,0,0,1,.361.218.943.943,0,0,1,.227.4,1.788,1.788,0,0,1,.059.583,3.263,3.263,0,0,1-.151.774,2.8,2.8,0,0,1-.507,1.038.584.584,0,0,1-.637.214.434.434,0,0,1-.294-.309,1.262,1.262,0,0,1,.037-.673l-.032-.01a1.028,1.028,0,0,1-.34.323.473.473,0,0,1-.37.041.333.333,0,0,1-.177-.113.591.591,0,0,1-.1-.186.784.784,0,0,1-.033-.212v-.2l-.029-.009a1.381,1.381,0,0,1-.506.438.729.729,0,0,1-.533.027.763.763,0,0,1-.528-.567,1.77,1.77,0,0,1,.044-1.01,2.023,2.023,0,0,1,.141-.349,2.583,2.583,0,0,1,.136-.247l.321-1.058Zm.13,1.437a1.1,1.1,0,0,0-.535-.052.374.374,0,0,0-.287.453.381.381,0,0,0,.107.173.7.7,0,0,0,.2.128,1.919,1.919,0,0,0,.249.094,1.064,1.064,0,0,0,.52.044.34.34,0,0,0,.281-.237.351.351,0,0,0-.08-.355.972.972,0,0,0-.455-.249Zm2.433.24a.4.4,0,0,0-.2,0,.408.408,0,0,0-.22.188,2.744,2.744,0,0,0-.113.316c-.05.149-.113.354-.193.614a.752.752,0,0,0,.145.219.567.567,0,0,0,.251.146.374.374,0,0,0,.161.007.476.476,0,0,0,.189-.074.794.794,0,0,0,.189-.175,1.1,1.1,0,0,0,.152-.34.936.936,0,0,0,.027-.578.535.535,0,0,0-.389-.324Z" transform="translate(-25.924 -172.663)" fill="#fff"/>
  <path id="Path_16" data-name="Path 16" d="M40.8,167.128l-.712,1.559L39.9,168.6l.041-.125a.364.364,0,0,0,.023-.113.178.178,0,0,0-.048-.113.447.447,0,0,0-.15-.1l-1.213-.554a.747.747,0,0,0-.443-.085.366.366,0,0,0-.264.227.648.648,0,0,0-.058.207.793.793,0,0,0,.01.218.633.633,0,0,0,.051.169c.023.048.043.087.061.121l1.392.636a.433.433,0,0,0,.163.043.192.192,0,0,0,.132-.043.551.551,0,0,0,.09-.085.8.8,0,0,0,.08-.113l.189.087-.72,1.576-.189-.086c.016-.045.032-.091.045-.137a.838.838,0,0,0,.027-.125.211.211,0,0,0-.036-.154.375.375,0,0,0-.142-.1l-1.509-.69a.379.379,0,0,0-.177-.031.406.406,0,0,0-.177.051.464.464,0,0,0-.105.094.9.9,0,0,0-.1.144l-.189-.086.5-1.269.057-.02.376.171v-.01l-.075-.247a1.972,1.972,0,0,1-.06-.26,1.02,1.02,0,0,1,.009-.3,1.305,1.305,0,0,1,.108-.351.876.876,0,0,1,.529-.525,1.02,1.02,0,0,1,.733.081l1.271.58a.382.382,0,0,0,.166.042.227.227,0,0,0,.139-.066.861.861,0,0,0,.083-.085.83.83,0,0,0,.09-.127Z" transform="translate(-32.521 -147.7)" fill="#fff"/>
  <path id="Path_17" data-name="Path 17" d="M44.487,141.708a.481.481,0,0,1,.227.333.588.588,0,0,1-.412.68.493.493,0,0,1-.635-.38.567.567,0,0,1,.073-.421.56.56,0,0,1,.34-.261A.489.489,0,0,1,44.487,141.708Zm3.552,1.639-.925,1.546-.178-.107c.022-.045.043-.088.062-.133a.566.566,0,0,0,.039-.12.237.237,0,0,0-.019-.16.34.34,0,0,0-.126-.113l-1.425-.851a.333.333,0,0,0-.173-.051.382.382,0,0,0-.162.035.611.611,0,0,0-.136.1.932.932,0,0,0-.132.143l-.179-.107.653-1.238.059-.015,1.943,1.162a.312.312,0,0,0,.168.05.253.253,0,0,0,.152-.051.852.852,0,0,0,.1-.085.741.741,0,0,0,.1-.108Z" transform="translate(-38.705 -125.579)" fill="#fff"/>
  <path id="Path_18" data-name="Path 18" d="M62.435,127.521a3.754,3.754,0,0,1-.113.4,1.792,1.792,0,0,1-.232.457.9.9,0,0,1-.559.413.847.847,0,0,1-.634-.186l-1.425-1.02-.3.418-.254-.179.3-.429-.7-.491.535-.753.7.5.464-.654.254.18-.461.648,1.273.907a.892.892,0,0,0,.439.192.376.376,0,0,0,.307-.192c.029-.042.068-.1.113-.181a1.235,1.235,0,0,0,.09-.171Z" transform="translate(-51.885 -111.716)" fill="#fff"/>
  <path id="Path_19" data-name="Path 19" d="M83.733,107.659a1.738,1.738,0,0,1,.073.383,1.473,1.473,0,0,1-.026.4,1.745,1.745,0,0,1-.132.4,1.648,1.648,0,0,1-.254.375,1.992,1.992,0,0,1-.567.469,1.422,1.422,0,0,1-.576.168,1.284,1.284,0,0,1-.555-.09,1.763,1.763,0,0,1-.515-.32,1.494,1.494,0,0,1-.506-.989,1.439,1.439,0,0,1,.075-.584,1.678,1.678,0,0,1,.34-.579,1.868,1.868,0,0,1,.5-.43,1.152,1.152,0,0,1,.481-.143.981.981,0,0,1,.444.074,1.466,1.466,0,0,1,.4.249l.139.122-1.27,1.45a1.49,1.49,0,0,0,.817.417.829.829,0,0,0,.7-.34.841.841,0,0,0,.206-.453,1.377,1.377,0,0,0-.04-.52Zm-1.533.105c-.085-.075-.177-.147-.274-.218a1.183,1.183,0,0,0-.261-.149.445.445,0,0,0-.24-.034.33.33,0,0,0-.19.113.4.4,0,0,0-.065.41,1.52,1.52,0,0,0,.436.567Z" transform="translate(-71.524 -94.622)" fill="#fff"/>
  <path id="Path_20" data-name="Path 20" d="M117.067,69.749,115.325,71.1l-.136-.177a2.674,2.674,0,0,0,.252-.265c.091-.113.124-.179.1-.213a.264.264,0,0,0-.035-.039.3.3,0,0,0-.066-.045l-.787-.453-1.1.858c.023.08.051.175.084.281s.065.2.092.282a1.559,1.559,0,0,0,.091.227c.024.041.042.069.053.085.037.048.105.06.205.037a1.5,1.5,0,0,0,.421-.209l.136.176-1.312,1.02-.136-.176a1.647,1.647,0,0,0,.15-.154.586.586,0,0,0,.107-.167.749.749,0,0,0,.053-.255.857.857,0,0,0-.039-.27q-.227-.834-.453-1.674l-.507-1.851.453-.349q1.284.743,2.022,1.18t1.237.715a.644.644,0,0,0,.169.066.606.606,0,0,0,.21,0,.632.632,0,0,0,.188-.059,1.406,1.406,0,0,0,.169-.1Zm-2.682.01-1.36-.794.44,1.509Z" transform="translate(-99.736 -60.087)" fill="#fff"/>
  <path id="Path_21" data-name="Path 21" d="M146.939,57.382a1.988,1.988,0,0,1-.664.251,1.383,1.383,0,0,1-.591-.023,1.292,1.292,0,0,1-.494-.268,1.794,1.794,0,0,1-.384-.473,1.4,1.4,0,0,1-.18-.548,1.474,1.474,0,0,1,.324-1.114,1.821,1.821,0,0,1,.528-.453,1.505,1.505,0,0,1,.817-.244.609.609,0,0,1,.532.309.489.489,0,0,1,.073.34.474.474,0,0,1-.261.295.6.6,0,0,1-.362.091.316.316,0,0,1-.258-.154.868.868,0,0,1-.1-.262,1.124,1.124,0,0,0-.058-.207.227.227,0,0,0-.113-.028.34.34,0,0,0-.145.052.474.474,0,0,0-.172.169.579.579,0,0,0-.065.281,1.221,1.221,0,0,0,.069.4,2.721,2.721,0,0,0,.243.525,1.3,1.3,0,0,0,.616.59.7.7,0,0,0,.648-.016.817.817,0,0,0,.365-.374,1.265,1.265,0,0,0,.086-.512l.26.022a1.626,1.626,0,0,1-.024.38,1.351,1.351,0,0,1-.126.368,1.532,1.532,0,0,1-.227.34A1.4,1.4,0,0,1,146.939,57.382Z" transform="translate(-128.218 -48.33)" fill="#fff"/>
  <path id="Path_22" data-name="Path 22" d="M172.349,44.655a2.109,2.109,0,0,1-.232.209,1.45,1.45,0,0,1-.314.185.991.991,0,0,1-.515.107.524.524,0,0,1-.324-.185l-.015.007a1.83,1.83,0,0,1-.113.227,1.037,1.037,0,0,1-.13.184,1.213,1.213,0,0,1-.507.354.85.85,0,0,1-.6.043.641.641,0,0,1-.419-.383.882.882,0,0,1-.077-.311.735.735,0,0,1,.167-.486,2.223,2.223,0,0,1,.183-.2c.133-.125.3-.266.49-.423a3.424,3.424,0,0,0,.412-.374l-.113-.252c-.019-.043-.048-.1-.085-.168a.594.594,0,0,0-.11-.158.355.355,0,0,0-.407-.06.549.549,0,0,0-.179.113.838.838,0,0,0-.1.12,1.2,1.2,0,0,0,.113.142.68.68,0,0,1,.126.19.387.387,0,0,1,.024.121.264.264,0,0,1-.023.136.506.506,0,0,1-.1.139.744.744,0,0,1-.219.118.511.511,0,0,1-.38.037.408.408,0,0,1-.227-.542,1.041,1.041,0,0,1,.2-.314,1.749,1.749,0,0,1,.328-.285,2.137,2.137,0,0,1,.384-.21,3.613,3.613,0,0,1,.48-.17,1.178,1.178,0,0,1,.435-.04.722.722,0,0,1,.373.155,1.026,1.026,0,0,1,.29.414q.128.3.289.706t.218.54a.441.441,0,0,0,.113.171.243.243,0,0,0,.152.056.424.424,0,0,0,.152-.035c.065-.025.124-.049.176-.071Zm-1.885-.807c-.084.075-.164.155-.243.239a1.288,1.288,0,0,0-.175.237.567.567,0,0,0-.071.253.662.662,0,0,0,.06.294.439.439,0,0,0,.221.256.34.34,0,0,0,.269-.007.47.47,0,0,0,.209-.162.745.745,0,0,0,.1-.217Z" transform="translate(-149.526 -37.702)" fill="#fff"/>
  <path id="Path_23" data-name="Path 23" d="M202.624,20.634l-1.332.453-.052-.027-.07-.253h-.02a1.213,1.213,0,0,1-.292.364,1.1,1.1,0,0,1-.432.238,1.2,1.2,0,0,1-1.023-.162,1.619,1.619,0,0,1-.656-.965,1.427,1.427,0,0,1,.124-1.106,1.352,1.352,0,0,1,.857-.68,1.723,1.723,0,0,1,.436-.067,1.3,1.3,0,0,1,.349.031l-.251-.9a.48.48,0,0,0-.1-.179.353.353,0,0,0-.149-.113.56.56,0,0,0-.237-.027,2.592,2.592,0,0,0-.266.034l-.057-.2,1.466-.486.053.033,1,3.6a.426.426,0,0,0,.084.167.257.257,0,0,0,.142.082.536.536,0,0,0,.18,0c.076-.012.138-.024.186-.035Zm-1.537-.1-.438-1.552a1.218,1.218,0,0,0-.093-.125.578.578,0,0,0-.134-.12.535.535,0,0,0-.175-.06.484.484,0,0,0-.219.014.535.535,0,0,0-.363.435,1.868,1.868,0,0,0,.069.925,2.291,2.291,0,0,0,.143.391,1.055,1.055,0,0,0,.2.291.647.647,0,0,0,.268.171.627.627,0,0,0,.582-.143A.85.85,0,0,0,201.087,20.536Z" transform="translate(-176.161 -14.709)" fill="#fff"/>
  <path id="Path_24" data-name="Path 24" d="M235.682,27.233a1.693,1.693,0,0,1-.195.34,1.42,1.42,0,0,1-.282.289,1.778,1.778,0,0,1-.359.218,1.673,1.673,0,0,1-.436.113,2.005,2.005,0,0,1-.738-.016,1.424,1.424,0,0,1-.546-.247,1.287,1.287,0,0,1-.363-.431,1.747,1.747,0,0,1-.181-.577,1.5,1.5,0,0,1,.261-1.08,1.448,1.448,0,0,1,.438-.393,1.652,1.652,0,0,1,.636-.218,1.882,1.882,0,0,1,.662,0,1.167,1.167,0,0,1,.459.205.962.962,0,0,1,.288.347,1.454,1.454,0,0,1,.139.448l.026.184-1.908.272a1.485,1.485,0,0,0,.348.849.935.935,0,0,0,1.205-.012,1.373,1.373,0,0,0,.314-.417Zm-1.23-.921c-.017-.113-.039-.227-.067-.34a1.2,1.2,0,0,0-.1-.282.439.439,0,0,0-.16-.181.329.329,0,0,0-.22-.039.393.393,0,0,0-.315.27,1.5,1.5,0,0,0-.042.718Z" transform="translate(-206.199 -22.344)" fill="#fff"/>
  <path id="Path_25" data-name="Path 25" d="M267.57,25.932l-1.693-.035v-.207c.042,0,.085-.009.13-.011a.3.3,0,0,0,.113-.026.137.137,0,0,0,.082-.093.765.765,0,0,0,.02-.172l.032-1.331a.766.766,0,0,0-.094-.443.34.34,0,0,0-.295-.154.583.583,0,0,0-.22.034.847.847,0,0,0-.178.091.621.621,0,0,0-.132.113l-.079.1-.031,1.533a.478.478,0,0,0,.019.168.2.2,0,0,0,.087.1.534.534,0,0,0,.1.048.607.607,0,0,0,.122.032v.209l-1.619-.039.006-.209.13-.011a.331.331,0,0,0,.113-.025.15.15,0,0,0,.079-.09.6.6,0,0,0,.023-.177l.032-1.331a.757.757,0,0,0-.094-.443.34.34,0,0,0-.295-.153.586.586,0,0,0-.22.033.8.8,0,0,0-.178.092.619.619,0,0,0-.132.113c-.032.039-.058.073-.079.1l-.044,1.529a.473.473,0,0,0,.022.166.191.191,0,0,0,.09.1.611.611,0,0,0,.1.049.7.7,0,0,0,.124.032v.207L261.91,25.8V25.59c.05,0,.1-.007.146-.011a.5.5,0,0,0,.125-.022.227.227,0,0,0,.128-.1.371.371,0,0,0,.039-.169l.039-1.663a.348.348,0,0,0-.044-.18.392.392,0,0,0-.113-.137.454.454,0,0,0-.128-.06.923.923,0,0,0-.172-.036l.006-.207,1.36-.042.041.043-.009.4h.011l.194-.166a1.515,1.515,0,0,1,.21-.153.988.988,0,0,1,.274-.113,1.36,1.36,0,0,1,.363-.036.975.975,0,0,1,.54.153.782.782,0,0,1,.3.382h.025c.057-.05.126-.113.207-.176a1.8,1.8,0,0,1,.227-.162,1.055,1.055,0,0,1,.286-.113,1.4,1.4,0,0,1,.371-.04.855.855,0,0,1,.656.27,1.027,1.027,0,0,1,.215.727l-.033,1.385a.4.4,0,0,0,.027.17.211.211,0,0,0,.113.1.827.827,0,0,0,.266.075Z" transform="translate(-232.217 -20.342)" fill="#fff"/>
  <path id="Path_26" data-name="Path 26" d="M314.656,17.958l-1.776-.3.035-.205.145.01a.486.486,0,0,0,.126-.008.236.236,0,0,0,.143-.076.324.324,0,0,0,.065-.161l.275-1.636a.33.33,0,0,0-.016-.18.378.378,0,0,0-.092-.138.613.613,0,0,0-.143-.091,1.1,1.1,0,0,0-.18-.071l.035-.205,1.39.16.035.049-.376,2.232a.317.317,0,0,0,.014.175.254.254,0,0,0,.1.122.793.793,0,0,0,.113.066.785.785,0,0,0,.136.052Zm.236-3.9a.483.483,0,0,1-.227.34.592.592,0,0,1-.782-.132.492.492,0,0,1,.124-.729.59.59,0,0,1,.783.132A.491.491,0,0,1,314.892,14.054Z" transform="translate(-277.408 -11.916)" fill="#fff"/>
  <path id="Path_27" data-name="Path 27" d="M334.218,34.8a1.947,1.947,0,0,1-.651-.291,1.392,1.392,0,0,1-.4-.433,1.289,1.289,0,0,1-.16-.538,1.791,1.791,0,0,1,.061-.607,1.38,1.38,0,0,1,.26-.515,1.485,1.485,0,0,1,1.02-.56,1.825,1.825,0,0,1,.692.057,1.507,1.507,0,0,1,.75.4.61.61,0,0,1,.16.6.487.487,0,0,1-.189.291.474.474,0,0,1-.393.025.6.6,0,0,1-.324-.192.315.315,0,0,1-.069-.3.885.885,0,0,1,.113-.255,1.2,1.2,0,0,0,.107-.187.226.226,0,0,0-.057-.1.332.332,0,0,0-.139-.066.472.472,0,0,0-.242,0,.567.567,0,0,0-.245.154,1.261,1.261,0,0,0-.235.332,2.744,2.744,0,0,0-.2.543,1.3,1.3,0,0,0,.019.853.7.7,0,0,0,.469.447.814.814,0,0,0,.523-.007,1.285,1.285,0,0,0,.424-.3l.171.2a1.716,1.716,0,0,1-.286.253,1.361,1.361,0,0,1-.35.17,1.5,1.5,0,0,1-.4.077,1.368,1.368,0,0,1-.431-.057Z" transform="translate(-295.248 -28.234)" fill="#fff"/>
  <path id="Path_28" data-name="Path 28" d="M369.277,39.832a2.454,2.454,0,0,1-.586-.378,2.484,2.484,0,0,1-.4-.429l-.263.1-.219-.1.588-1.34.221.1a3.751,3.751,0,0,0,0,.489,2.117,2.117,0,0,0,.092.5,1.548,1.548,0,0,0,.22.447,1.02,1.02,0,0,0,.4.323.845.845,0,0,0,.619.08.619.619,0,0,0,.39-.34.519.519,0,0,0,.01-.434,1.474,1.474,0,0,0-.37-.489l-.34-.316c-.1-.1-.2-.19-.285-.282a1.239,1.239,0,0,1-.35-.68,1.21,1.21,0,0,1,.108-.7,1.041,1.041,0,0,1,.287-.368,1.193,1.193,0,0,1,.438-.227,1.474,1.474,0,0,1,.549-.036,1.916,1.916,0,0,1,.622.179,2.016,2.016,0,0,1,.529.353,2.578,2.578,0,0,1,.34.366l.227-.08.227.105-.567,1.258-.221-.1c.011-.159.015-.324.011-.5a2.006,2.006,0,0,0-.056-.453,1.111,1.111,0,0,0-.179-.376.887.887,0,0,0-.346-.271.727.727,0,0,0-.529-.057.556.556,0,0,0-.351.307.515.515,0,0,0-.015.432,1.492,1.492,0,0,0,.355.47l.329.312c.113.105.211.2.295.29a1.4,1.4,0,0,1,.382.667,1.119,1.119,0,0,1-.1.723,1.134,1.134,0,0,1-.326.408,1.189,1.189,0,0,1-.474.227,1.7,1.7,0,0,1-.6.026A2.267,2.267,0,0,1,369.277,39.832Z" transform="translate(-326.111 -31.692)" fill="#fff"/>
  <path id="Path_29" data-name="Path 29" d="M404.553,63.259a1.306,1.306,0,0,1,.015.567,1.539,1.539,0,0,1-.227.558,1.6,1.6,0,0,1-.416.442,1.3,1.3,0,0,1-.531.227,1.535,1.535,0,0,1-.629-.016,2.114,2.114,0,0,1-.662-.292,1.987,1.987,0,0,1-.483-.432,1.519,1.519,0,0,1-.272-.532,1.361,1.361,0,0,1-.031-.583,1.513,1.513,0,0,1,.236-.593,1.6,1.6,0,0,1,.422-.453,1.37,1.37,0,0,1,.537-.214,1.425,1.425,0,0,1,.6.023,2.267,2.267,0,0,1,1.169.758A1.508,1.508,0,0,1,404.553,63.259Zm-1.685,1.263a1.646,1.646,0,0,0,.288-.275,4,4,0,0,0,.313-.429,4.21,4.21,0,0,0,.227-.4,1.72,1.72,0,0,0,.148-.387.68.68,0,0,0-.007-.34.517.517,0,0,0-.533-.34.714.714,0,0,0-.314.141,1.568,1.568,0,0,0-.275.274,4.366,4.366,0,0,0-.266.37,5.088,5.088,0,0,0-.263.442,1.6,1.6,0,0,0-.141.4.659.659,0,0,0,.006.34.511.511,0,0,0,.5.34.633.633,0,0,0,.313-.134Z" transform="translate(-355.804 -54.896)" fill="#fff"/>
  <path id="Path_30" data-name="Path 30" d="M424.05,69.791l-1.4-1.126.13-.162c.041.028.082.054.122.079a.566.566,0,0,0,.113.057.218.218,0,0,0,.159,0,.372.372,0,0,0,.133-.113l1.978-2.462a.465.465,0,0,0,.092-.185.34.34,0,0,0,0-.184.718.718,0,0,0-.09-.164.951.951,0,0,0-.135-.159l.13-.162,1.167.842.006.062-2.4,2.975a.34.34,0,0,0-.078.156.245.245,0,0,0,.031.155,1.01,1.01,0,0,0,.065.113.783.783,0,0,0,.1.113Z" transform="translate(-374.734 -57.817)" fill="#fff"/>
  <path id="Path_31" data-name="Path 31" d="M443.178,92.719l-1.02-.9v-.059l.264-.264-.012-.012-.255-.011a1.04,1.04,0,0,1-.264-.048,1.352,1.352,0,0,1-.275-.113,1.475,1.475,0,0,1-.294-.239.836.836,0,0,1-.283-.65,1.07,1.07,0,0,1,.355-.68l.907-.907a.34.34,0,0,0,.1-.159.434.434,0,0,0,.008-.168.372.372,0,0,0-.061-.147,1.446,1.446,0,0,0-.1-.133l.147-.147,1.023.922-.008.052L442.068,90.4a.68.68,0,0,0-.227.387.376.376,0,0,0,.12.316.654.654,0,0,0,.332.183.762.762,0,0,0,.326.007L443.7,90.2a.406.406,0,0,0,.1-.15.316.316,0,0,0,.011-.166.33.33,0,0,0-.071-.136c-.04-.05-.083-.1-.127-.15l.147-.147,1.034.925v.061L443.242,92a.313.313,0,0,0-.093.314.371.371,0,0,0,.067.132,1.27,1.27,0,0,0,.113.133Z" transform="translate(-391.037 -78.094)" fill="#fff"/>
  <path id="Path_32" data-name="Path 32" d="M464.958,116.324a3.779,3.779,0,0,1-.357-.215,1.721,1.721,0,0,1-.366-.356.9.9,0,0,1-.244-.651.841.841,0,0,1,.348-.554l1.36-1.092-.32-.4.243-.194.328.409.68-.54.577.721-.674.54.5.626-.243.194-.5-.62-1.219.974a.9.9,0,0,0-.311.368.37.37,0,0,0,.1.347c.033.041.081.094.143.161a1.288,1.288,0,0,0,.141.134Z" transform="translate(-411.385 -99.95)" fill="#fff"/>
  <path id="Path_33" data-name="Path 33" d="M473.222,131.509l-1.012-1.491.172-.113.094.113a.516.516,0,0,0,.092.085.239.239,0,0,0,.154.051.34.34,0,0,0,.161-.065l1.373-.931a.33.33,0,0,0,.12-.137.392.392,0,0,0,.036-.162.645.645,0,0,0-.033-.166,1.127,1.127,0,0,0-.074-.179l.172-.113.846,1.114-.011.06-1.874,1.271a.316.316,0,0,0-.113.13.264.264,0,0,0-.017.16.9.9,0,0,0,.033.129.8.8,0,0,0,.057.134Zm2.984-2.527a.483.483,0,0,1-.4.069.593.593,0,0,1-.444-.656.494.494,0,0,1,.612-.415.56.56,0,0,1,.35.243.552.552,0,0,1,.1.414A.486.486,0,0,1,476.206,128.982Z" transform="translate(-418.676 -113.458)" fill="#fff"/>
  <path id="Path_34" data-name="Path 34" d="M489.4,155.137a1.3,1.3,0,0,1-.262.506,1.571,1.571,0,0,1-.47.379,1.62,1.62,0,0,1-.578.185,1.29,1.29,0,0,1-.575-.056,1.527,1.527,0,0,1-.543-.319,2.041,2.041,0,0,1-.438-.576,1.975,1.975,0,0,1-.215-.611,1.511,1.511,0,0,1,.019-.6,1.36,1.36,0,0,1,.255-.524,1.511,1.511,0,0,1,.494-.408,1.579,1.579,0,0,1,.588-.19,1.349,1.349,0,0,1,.574.066,1.473,1.473,0,0,1,.519.312,2.28,2.28,0,0,1,.659,1.229A1.538,1.538,0,0,1,489.4,155.137Zm-2.086.29a1.672,1.672,0,0,0,.385-.1,4.234,4.234,0,0,0,.482-.227,4.135,4.135,0,0,0,.388-.24,1.724,1.724,0,0,0,.317-.266.687.687,0,0,0,.159-.3.464.464,0,0,0-.054-.319.453.453,0,0,0-.251-.232.728.728,0,0,0-.34-.029,1.61,1.61,0,0,0-.374.108,4.212,4.212,0,0,0-.412.195c-.184.1-.331.185-.444.261a1.645,1.645,0,0,0-.315.278.658.658,0,0,0-.16.3.473.473,0,0,0,.057.323.467.467,0,0,0,.227.213A.638.638,0,0,0,487.311,155.428Z" transform="translate(-431.164 -135.583)" fill="#fff"/>
  <path id="Path_35" data-name="Path 35" d="M498.384,183.812l-.591-1.609.2-.071c.016.032.035.071.059.113a.351.351,0,0,0,.067.1.177.177,0,0,0,.113.049.481.481,0,0,0,.175-.036l1.253-.46a.737.737,0,0,0,.374-.252.367.367,0,0,0,.029-.347.661.661,0,0,0-.107-.188.77.77,0,0,0-.16-.147.64.64,0,0,0-.155-.084c-.049-.018-.092-.032-.128-.043l-1.437.528a.425.425,0,0,0-.146.084.2.2,0,0,0-.062.124.593.593,0,0,0,0,.122.857.857,0,0,0,.02.136l-.2.071-.6-1.627.2-.073c.019.044.041.087.063.13a.763.763,0,0,0,.068.107.215.215,0,0,0,.135.085.385.385,0,0,0,.172-.027l1.554-.569a.368.368,0,0,0,.147-.1.413.413,0,0,0,.09-.161.464.464,0,0,0,.009-.142.839.839,0,0,0-.031-.172l.2-.071.538,1.247-.026.056-.388.142v.011l.227.122a1.873,1.873,0,0,1,.227.143,1.021,1.021,0,0,1,.205.219,1.384,1.384,0,0,1,.171.325.882.882,0,0,1-.008.746,1.02,1.02,0,0,1-.576.459l-1.312.482a.367.367,0,0,0-.147.087.227.227,0,0,0-.053.144.858.858,0,0,0,0,.12.834.834,0,0,0,.026.153Z" transform="translate(-440.735 -158.955)" fill="#fff"/>
  <path id="Path_36" data-name="Path 36" d="M508.562,218.967a1.839,1.839,0,0,1-.041-.545,1.726,1.726,0,0,1,.077-.436l-.209-.041-.05-.217,1.029-.273.046.2a1.361,1.361,0,0,0-.251.2,1.494,1.494,0,0,0-.227.287,1.271,1.271,0,0,0-.143.347.794.794,0,0,0,0,.38.621.621,0,0,0,.185.354.381.381,0,0,0,.333.054.3.3,0,0,0,.17-.1.5.5,0,0,0,.091-.181,1.429,1.429,0,0,0,.04-.26c.007-.092.014-.205.022-.34a3.484,3.484,0,0,1,.026-.353,1.189,1.189,0,0,1,.113-.321.843.843,0,0,1,.215-.26.831.831,0,0,1,.347-.158.771.771,0,0,1,.71.184,1.466,1.466,0,0,1,.439.808,2.067,2.067,0,0,1,.056.477,2.363,2.363,0,0,1-.032.382l.178.022.048.211-.938.262-.044-.195a1.183,1.183,0,0,0,.423-.453.774.774,0,0,0,.093-.557.567.567,0,0,0-.165-.316.3.3,0,0,0-.276-.066.329.329,0,0,0-.264.249,2.369,2.369,0,0,0-.064.542,1.665,1.665,0,0,1-.184.806.762.762,0,0,1-.51.359.83.83,0,0,1-.787-.2A1.631,1.631,0,0,1,508.562,218.967Z" transform="translate(-450.71 -192.658)" fill="#fff"/>
  <path id="Path_37" data-name="Path 37" d="M31.881,63.779a31.89,31.89,0,1,1,22.55-9.34,31.89,31.89,0,0,1-22.55,9.34Zm0-63.214A31.323,31.323,0,1,0,63.2,31.889,31.366,31.366,0,0,0,31.881.566Z" transform="translate(0.01 0.001)" fill="#fff"/>
  <circle id="Ellipse_2" data-name="Ellipse 2" cx="1.337" cy="1.337" r="1.337" transform="translate(59.283 29.594)" fill="#e52d27"/>
  <path id="Path_38" data-name="Path 38" d="M30,337.932l-.04-.15a1.062,1.062,0,0,0,.164-.126,1.532,1.532,0,0,0,.17-.173,1.079,1.079,0,0,0,.134-.194.3.3,0,0,0,.042-.175q-.011-.069-.037-.173t-.051-.19l-.036-.127-2.471.722a.307.307,0,0,0-.124.069.217.217,0,0,0-.06.134,1.164,1.164,0,0,0,0,.172,1.305,1.305,0,0,0,.029.2l-.154.045-.426-1.456.154-.045q.023.059.071.18a.765.765,0,0,0,.083.163.212.212,0,0,0,.113.082.278.278,0,0,0,.153-.008l2.486-.728-.037-.126c-.012-.045-.031-.1-.052-.167s-.044-.128-.07-.187a.269.269,0,0,0-.129-.124,1.2,1.2,0,0,0-.217-.092,1.7,1.7,0,0,0-.241-.054,1.342,1.342,0,0,0-.2-.016l-.044-.152.839-.24.788,2.689Z" transform="translate(-24.062 -297.022)" fill="#fff"/>
  <path id="Path_39" data-name="Path 39" d="M35.578,367.451c-.05-.057-.092-.107-.127-.151a.654.654,0,0,1-.09-.161.454.454,0,0,1-.027-.293.381.381,0,0,1,.175-.214v-.012a1.117,1.117,0,0,1-.348-.2.893.893,0,0,1-.227-.347.574.574,0,0,1-.01-.441.532.532,0,0,1,.314-.295.67.67,0,0,1,.227-.051.567.567,0,0,1,.374.125,1.264,1.264,0,0,1,.143.13c.049.053.144.164.286.331a2.981,2.981,0,0,0,.307.332l.207-.083a.777.777,0,0,0,.1-.053.487.487,0,0,0,.128-.108.453.453,0,0,0,.088-.173.383.383,0,0,0-.029-.24.5.5,0,0,0-.1-.167.326.326,0,0,0-.113-.09.541.541,0,0,0-.113.069.744.744,0,0,1-.144.081.2.2,0,0,1-.161-.014.277.277,0,0,1-.135-.16.187.187,0,0,1,.014-.184.32.32,0,0,1,.147-.113.326.326,0,0,1,.213,0,.718.718,0,0,1,.227.113,1.072,1.072,0,0,1,.192.189.973.973,0,0,1,.145.247,1.743,1.743,0,0,1,.1.317.6.6,0,0,1-.009.281.521.521,0,0,1-.146.247.99.99,0,0,1-.322.193c-.2.079-.379.148-.536.205s-.329.121-.517.189a.278.278,0,0,0-.113.08.245.245,0,0,0-.048.12.227.227,0,0,0,.019.108c.016.046.034.094.053.142Zm.819-1.177q-.125-.159-.227-.272a1.39,1.39,0,0,0-.227-.2.623.623,0,0,0-.237-.1.472.472,0,0,0-.257.032.353.353,0,0,0-.22.194.361.361,0,0,0,.009.275.518.518,0,0,0,.18.227.818.818,0,0,0,.248.122Z" transform="translate(-30.929 -323.578)" fill="#fff"/>
  <path id="Path_40" data-name="Path 40" d="M43.078,379.307l-.3-.6.32-.585q.17-.311.319-.629l-.238-.088-.474.238a.278.278,0,0,0-.107.086.178.178,0,0,0-.027.12.613.613,0,0,0,.016.113.928.928,0,0,0,.039.113l-.134.067L42,377.158l.133-.067.058.092a.619.619,0,0,0,.058.077.17.17,0,0,0,.107.052.247.247,0,0,0,.133-.032l2.321-1.165a.379.379,0,0,0,.125-.1.266.266,0,0,0,.059-.133.292.292,0,0,0-.024-.154c-.024-.064-.043-.113-.059-.152l.13-.065.415.716-.016.043-2.111,1.061.51.17c.181.062.34.113.477.147a.6.6,0,0,0,.066.011.113.113,0,0,0,.058,0c.036-.018.049-.061.036-.129a1.134,1.134,0,0,0-.048-.187l.129-.066.441.879-.126.062a1.581,1.581,0,0,0-.277-.237,1.557,1.557,0,0,0-.237-.13c-.043-.018-.113-.043-.2-.071s-.212-.073-.364-.129q-.12.269-.3.619t-.261.51a.578.578,0,0,0-.075.239.567.567,0,0,0,.059.227Z" transform="translate(-37.237 -332.939)" fill="#fff"/>
  <path id="Path_41" data-name="Path 41" d="M57.006,406.461a1.144,1.144,0,0,1-.559-.1.944.944,0,0,1-.418-.378,1.086,1.086,0,0,1-.166-.453.907.907,0,0,1,.045-.419,1.088,1.088,0,0,1,.221-.366,1.635,1.635,0,0,1,.354-.291,1.36,1.36,0,0,1,.4-.164,1.185,1.185,0,0,1,.427-.024.97.97,0,0,1,.389.137.919.919,0,0,1,.308.314,1.041,1.041,0,0,1,.153.4.755.755,0,0,1-.031.351.84.84,0,0,1-.175.288,1.28,1.28,0,0,1-.291.239l-.127.078-.774-1.261a1.8,1.8,0,0,0-.319.245.972.972,0,0,0-.2.278.623.623,0,0,0-.056.3.712.712,0,0,0,.113.33.629.629,0,0,0,.263.247.943.943,0,0,0,.438.062Zm.465-.872a1.826,1.826,0,0,0,.215-.161.831.831,0,0,0,.169-.18.462.462,0,0,0,.07-.21.39.39,0,0,0-.067-.234.484.484,0,0,0-.374-.234.928.928,0,0,0-.559.142Z" transform="translate(-49.522 -358.428)" fill="#fff"/>
  <path id="Path_42" data-name="Path 42" d="M63.478,425.965a.271.271,0,0,1,.184-.067.2.2,0,0,1,.152.077.271.271,0,0,1,.057.113.4.4,0,0,1,0,.113.573.573,0,0,1-.027.113c-.015.044-.027.081-.037.108a.907.907,0,0,0,.417.015,2.575,2.575,0,0,0,.5-.1c.192-.334.361-.635.51-.9s.3-.544.453-.831a.332.332,0,0,0,.037-.214.609.609,0,0,0-.069-.205l.113-.093.634.794-.113.1a.794.794,0,0,0-.125-.113q-.078-.058-.105-.037a.2.2,0,0,0-.029.036c-.012.019-.024.039-.036.06-.082.137-.2.34-.34.607s-.266.478-.359.634l.525-.145c.181-.05.391-.113.633-.188l.121-.039a.371.371,0,0,0,.12-.058c.031-.024.037-.074.022-.148a.632.632,0,0,0-.073-.193l.113-.09.516.65-.113.087a.568.568,0,0,0-.172-.092.406.406,0,0,0-.252-.011q-.656.177-1.189.332c-.356.1-.619.178-.794.227a4.151,4.151,0,0,1-.545.113,1.487,1.487,0,0,1-.355,0,.632.632,0,0,1-.218-.068.465.465,0,0,1-.135-.113.422.422,0,0,1-.113-.269A.246.246,0,0,1,63.478,425.965Z" transform="translate(-56.193 -376.012)" fill="#fff"/>
  <path id="Path_43" data-name="Path 43" d="M89.216,446.668a1.451,1.451,0,0,1-.389.263,1.08,1.08,0,0,1-.427.113,1,1,0,0,1-.444-.078,1.176,1.176,0,0,1-.382-.277,1.051,1.051,0,0,1-.22-.35,1.02,1.02,0,0,1-.063-.409,1.111,1.111,0,0,1,.113-.425,1.331,1.331,0,0,1,.3-.4,1.22,1.22,0,0,1,.832-.365,1.115,1.115,0,0,1,1.092,1.134A1.163,1.163,0,0,1,89.216,446.668Zm-.325-.34a1.944,1.944,0,0,0,.238-.271,1.152,1.152,0,0,0,.163-.294.628.628,0,0,0,.033-.294.472.472,0,0,0-.136-.268.5.5,0,0,0-.268-.159.64.64,0,0,0-.308.016,1,1,0,0,0-.3.142,1.9,1.9,0,0,0-.264.215,2.1,2.1,0,0,0-.269.3,1.154,1.154,0,0,0-.163.307.636.636,0,0,0-.032.3.479.479,0,0,0,.138.268.5.5,0,0,0,.507.138,1.449,1.449,0,0,0,.66-.4Z" transform="translate(-77.392 -394.321)" fill="#fff"/>
  <path id="Path_44" data-name="Path 44" d="M105.2,459.956l-.58-.445v-.046l.188-.212-.01-.009c-.052,0-.113.008-.172.01a.887.887,0,0,1-.194-.016,1.083,1.083,0,0,1-.209-.06.908.908,0,0,1-.227-.154.547.547,0,0,1-.21-.444.887.887,0,0,1,.255-.524l.706-.8a.256.256,0,0,0,.063-.255.284.284,0,0,0-.05-.1c-.026-.033-.054-.066-.086-.1l.1-.113.594.453v.047l-1.02,1.163a.537.537,0,0,0-.16.346.34.34,0,0,0,.113.264.623.623,0,0,0,.192.113.657.657,0,0,0,.183.04.7.7,0,0,0,.147,0,.582.582,0,0,0,.113-.026l.836-.949a.266.266,0,0,0,.065-.12.3.3,0,0,0,0-.131.265.265,0,0,0-.069-.105l-.128-.127.1-.113.645.5v.047l-1.171,1.328a.259.259,0,0,0-.063.12.289.289,0,0,0,0,.128.256.256,0,0,0,.052.088,1.035,1.035,0,0,0,.086.091Z" transform="translate(-92.021 -404.916)" fill="#fff"/>
  <path id="Path_45" data-name="Path 45" d="M121.664,473.545a.369.369,0,0,1-.169.13.189.189,0,0,1-.193-.032.265.265,0,0,1-.113-.169.2.2,0,0,1,.033-.156.517.517,0,0,1,.061-.068l.06-.056a.488.488,0,0,0-.252-.081.726.726,0,0,0-.34.051l-.778,1.041a.248.248,0,0,0-.053.122.185.185,0,0,0,.033.113.578.578,0,0,0,.1.113c.043.042.082.077.113.107l-.088.119-.944-.7.09-.12.092.057a.392.392,0,0,0,.088.043.162.162,0,0,0,.113,0,.262.262,0,0,0,.1-.088l.824-1.1a.322.322,0,0,0,.057-.13.258.258,0,0,0-.067-.235.851.851,0,0,0-.091-.09l.09-.12.625.4.006.044-.188.253.009.007a1.014,1.014,0,0,1,.417-.036.665.665,0,0,1,.309.113.311.311,0,0,1,.13.213A.34.34,0,0,1,121.664,473.545Z" transform="translate(-105.623 -418.748)" fill="#fff"/>
  <path id="Path_46" data-name="Path 46" d="M145.789,492.686c-.074-.014-.138-.026-.193-.04a.644.644,0,0,1-.169-.071.44.44,0,0,1-.2-.213.38.38,0,0,1,0-.275l-.011-.007a1.118,1.118,0,0,1-.4.057.887.887,0,0,1-.395-.129.579.579,0,0,1-.28-.34.528.528,0,0,1,.062-.43.664.664,0,0,1,.147-.181.546.546,0,0,1,.186-.1.525.525,0,0,1,.19-.029,1.231,1.231,0,0,1,.193.014c.073.011.215.04.43.084a3.078,3.078,0,0,0,.446.07l.113-.194a1.034,1.034,0,0,0,.046-.1.477.477,0,0,0,.033-.164.44.44,0,0,0-.037-.19.381.381,0,0,0-.171-.171.527.527,0,0,0-.185-.067.365.365,0,0,0-.146,0,.729.729,0,0,0-.049.127.7.7,0,0,1-.062.152.2.2,0,0,1-.135.09.279.279,0,0,1-.2-.043.186.186,0,0,1-.1-.153.32.32,0,0,1,.045-.183.311.311,0,0,1,.163-.135.719.719,0,0,1,.252-.054,1.065,1.065,0,0,1,.268.031,1,1,0,0,1,.268.1,1.859,1.859,0,0,1,.273.189.62.62,0,0,1,.167.227.521.521,0,0,1,.037.285.988.988,0,0,1-.134.35c-.113.187-.206.351-.295.493s-.181.3-.28.47a.28.28,0,0,0-.044.136.24.24,0,0,0,.037.124.227.227,0,0,0,.082.074l.129.078Zm-.083-1.431c-.13-.032-.246-.057-.348-.074a1.36,1.36,0,0,0-.3-.017.618.618,0,0,0-.246.068.466.466,0,0,0-.183.184.354.354,0,0,0-.054.289.364.364,0,0,0,.172.2.515.515,0,0,0,.285.074.819.819,0,0,0,.271-.057Z" transform="translate(-127.78 -434.449)" fill="#fff"/>
  <path id="Path_47" data-name="Path 47" d="M165.179,502.613a.943.943,0,0,1-.545-.617,1.286,1.286,0,0,1,.125-.9,1.3,1.3,0,0,1,.256-.366,1.231,1.231,0,0,1,.354-.244,1.027,1.027,0,0,1,.415-.09.993.993,0,0,1,.439.1.857.857,0,0,1,.414.373.509.509,0,0,1,0,.476.379.379,0,0,1-.136.158.194.194,0,0,1-.2,0,.294.294,0,0,1-.158-.151.2.2,0,0,1,0-.168.84.84,0,0,1,.113-.177,1.111,1.111,0,0,0,.1-.128.2.2,0,0,0-.069-.136.609.609,0,0,0-.145-.1.5.5,0,0,0-.206-.048.53.53,0,0,0-.246.073.927.927,0,0,0-.254.217,1.77,1.77,0,0,0-.246.393,1.171,1.171,0,0,0-.128.7.574.574,0,0,0,.326.453.618.618,0,0,0,.378.061,1.021,1.021,0,0,0,.387-.171l.09.148a1.167,1.167,0,0,1-.538.212A.924.924,0,0,1,165.179,502.613Z" transform="translate(-145.941 -443.671)" fill="#fff"/>
  <path id="Path_48" data-name="Path 48" d="M182.98,510.091a1.307,1.307,0,0,1-.2-.009.622.622,0,0,1-.178-.043.439.439,0,0,1-.234-.178.379.379,0,0,1-.04-.273h-.012a1.135,1.135,0,0,1-.384.119.867.867,0,0,1-.41-.066.567.567,0,0,1-.331-.291.535.535,0,0,1-.007-.434.662.662,0,0,1,.113-.2.561.561,0,0,1,.168-.138.54.54,0,0,1,.184-.059,1.221,1.221,0,0,1,.193-.017c.073,0,.219,0,.438.015a3.039,3.039,0,0,0,.453,0l.081-.209a.909.909,0,0,0,.028-.113.483.483,0,0,0,.008-.167.454.454,0,0,0-.068-.183.386.386,0,0,0-.2-.142.51.51,0,0,0-.194-.036.331.331,0,0,0-.143.024.585.585,0,0,0-.028.133.688.688,0,0,1-.039.16.192.192,0,0,1-.113.113.274.274,0,0,1-.209-.009.185.185,0,0,1-.127-.135.317.317,0,0,1,.155-.347.725.725,0,0,1,.239-.09,1.019,1.019,0,0,1,.269-.012.953.953,0,0,1,.28.06,1.824,1.824,0,0,1,.3.143.606.606,0,0,1,.2.2.511.511,0,0,1,.082.276.96.96,0,0,1-.076.367c-.077.2-.148.379-.212.533s-.132.324-.2.509a.282.282,0,0,0-.023.142.25.25,0,0,0,.057.113.226.226,0,0,0,.092.06l.141.057Zm-.309-1.4c-.134-.01-.252-.016-.355-.017a1.453,1.453,0,0,0-.3.031.616.616,0,0,0-.232.107.475.475,0,0,0-.152.211.325.325,0,0,0,.195.466.5.5,0,0,0,.293.028.806.806,0,0,0,.258-.1Z" transform="translate(-160.607 -449.963)" fill="#fff"/>
  <path id="Path_49" data-name="Path 49" d="M204.915,508.859l-.765-.166-.024-.04.057-.2-.016-.009a.926.926,0,0,1-.34.128.812.812,0,0,1-.366-.017.837.837,0,0,1-.33-.181.942.942,0,0,1-.227-.314,1.194,1.194,0,0,1-.1-.419,1.45,1.45,0,0,1,.057-.487,1.247,1.247,0,0,1,.206-.419,1.214,1.214,0,0,1,.324-.3,1.02,1.02,0,0,1,.391-.141.988.988,0,0,1,.417.024,1.173,1.173,0,0,1,.285.122,1.041,1.041,0,0,1,.221.167l.212-.748a.432.432,0,0,0,.017-.176.269.269,0,0,0-.052-.139.463.463,0,0,0-.147-.107c-.066-.032-.137-.061-.215-.091l.037-.135.894.2.024.042-.821,2.9a.261.261,0,0,0-.007.137.255.255,0,0,0,.06.113.275.275,0,0,0,.113.067c.051.019.1.036.141.05Zm-.68-.6L204.59,507a.555.555,0,0,0-.023-.138.542.542,0,0,0-.063-.147.609.609,0,0,0-.122-.133.534.534,0,0,0-.187-.092.47.47,0,0,0-.26,0,.66.66,0,0,0-.249.138,1.046,1.046,0,0,0-.215.274,1.785,1.785,0,0,0-.166.4,1.518,1.518,0,0,0-.059.34.928.928,0,0,0,.039.311.654.654,0,0,0,.139.252.538.538,0,0,0,.261.153.526.526,0,0,0,.309.006.98.98,0,0,0,.24-.11Z" transform="translate(-179.809 -447.936)" fill="#fff"/>
  <path id="Path_50" data-name="Path 50" d="M228.222,521.963a1.158,1.158,0,0,1-.453.349.959.959,0,0,1-.561.054,1.113,1.113,0,0,1-.447-.181.918.918,0,0,1-.28-.316,1.082,1.082,0,0,1-.121-.41,1.607,1.607,0,0,1,.022-.464,1.361,1.361,0,0,1,.158-.407,1.186,1.186,0,0,1,.269-.333.975.975,0,0,1,.364-.2.923.923,0,0,1,.44-.017,1.028,1.028,0,0,1,.4.154.753.753,0,0,1,.239.26.859.859,0,0,1,.1.323,1.3,1.3,0,0,1-.019.376l-.028.146-1.452-.276a1.739,1.739,0,0,0-.034.4.976.976,0,0,0,.071.34.629.629,0,0,0,.188.247.7.7,0,0,0,.32.138.634.634,0,0,0,.359-.027.936.936,0,0,0,.34-.282Zm-.333-.93a1.907,1.907,0,0,0,.029-.27.877.877,0,0,0-.023-.251.464.464,0,0,0-.113-.193.382.382,0,0,0-.218-.108.486.486,0,0,0-.425.12.919.919,0,0,0-.27.508Z" transform="translate(-200.689 -461.07)" fill="#fff"/>
  <path id="Path_51" data-name="Path 51" d="M249.99,525.7l-1.084-.08.01-.149h.107a.472.472,0,0,0,.1-.011.159.159,0,0,0,.1-.065.249.249,0,0,0,.04-.129l.086-1.15a.55.55,0,0,0-.08-.371.333.333,0,0,0-.257-.147.618.618,0,0,0-.211.018.679.679,0,0,0-.185.082.538.538,0,0,0-.113.1.863.863,0,0,0-.074.092l-.1,1.284a.275.275,0,0,0,.018.132.174.174,0,0,0,.086.085.885.885,0,0,0,.092.037.584.584,0,0,0,.108.023l-.01.15-1.062-.079.011-.148h.1a.378.378,0,0,0,.091-.011.169.169,0,0,0,.1-.063.254.254,0,0,0,.04-.13l.086-1.15a.556.556,0,0,0-.08-.371.34.34,0,0,0-.258-.147.613.613,0,0,0-.211.019.7.7,0,0,0-.186.083.559.559,0,0,0-.12.1l-.075.09-.1,1.272a.242.242,0,0,0,.023.131.2.2,0,0,0,.088.086.505.505,0,0,0,.1.041.653.653,0,0,0,.113.024l-.011.15-1.082-.08.011-.15h.113a.416.416,0,0,0,.1-.01.164.164,0,0,0,.1-.065.25.25,0,0,0,.041-.129l.1-1.383a.272.272,0,0,0-.023-.133.3.3,0,0,0-.085-.1.39.39,0,0,0-.1-.052.7.7,0,0,0-.13-.032l.011-.149h.749l.029.034-.024.319h.016c.04-.035.09-.076.147-.122a1.155,1.155,0,0,1,.161-.113.737.737,0,0,1,.2-.076.877.877,0,0,1,.258-.017.616.616,0,0,1,.365.144.667.667,0,0,1,.2.3l.154-.128a1.323,1.323,0,0,1,.172-.113.782.782,0,0,1,.209-.079.89.89,0,0,1,.262-.017.567.567,0,0,1,.432.219.837.837,0,0,1,.122.582l-.085,1.134a.277.277,0,0,0,.018.132.179.179,0,0,0,.086.085.647.647,0,0,0,.1.037.711.711,0,0,0,.113.024Z" transform="translate(-218.27 -463.895)" fill="#fff"/>
  <path id="Path_52" data-name="Path 52" d="M283.93,517.744l-1.077.023v-.15l.107-.011a.367.367,0,0,0,.1-.02.168.168,0,0,0,.093-.073.263.263,0,0,0,.027-.134L283.148,516a.275.275,0,0,0-.039-.126.3.3,0,0,0-.094-.1.434.434,0,0,0-.126-.043.865.865,0,0,0-.15-.022v-.148l.787-.067.033.032.037,1.82a.268.268,0,0,0,.033.131.183.183,0,0,0,.1.075.878.878,0,0,0,.1.031.587.587,0,0,0,.107.015Zm-.348-3.135a.325.325,0,0,1-.08.227.27.27,0,0,1-.207.1.264.264,0,0,1-.2-.087.3.3,0,0,1-.09-.209.314.314,0,0,1,.08-.219.263.263,0,0,1,.2-.1.272.272,0,0,1,.213.083A.281.281,0,0,1,283.582,514.609Z" transform="translate(-250.685 -456.017)" fill="#fff"/>
  <path id="Path_53" data-name="Path 53" d="M297.053,525.726a.945.945,0,0,1-.782-.258,1.287,1.287,0,0,1-.34-.838,1.307,1.307,0,0,1,.037-.444,1.211,1.211,0,0,1,.183-.389,1,1,0,0,1,.313-.286.987.987,0,0,1,.43-.135.855.855,0,0,1,.545.113.509.509,0,0,1,.241.41.37.37,0,0,1-.039.2.194.194,0,0,1-.171.1.3.3,0,0,1-.212-.05.205.205,0,0,1-.085-.145.886.886,0,0,1,.009-.211,1.083,1.083,0,0,0,.019-.159.205.205,0,0,0-.134-.087.63.63,0,0,0-.175-.009.474.474,0,0,0-.2.063.537.537,0,0,0-.176.186.919.919,0,0,0-.113.316,1.778,1.778,0,0,0-.014.461,1.164,1.164,0,0,0,.243.67.574.574,0,0,0,.509.227.609.609,0,0,0,.357-.137,1.037,1.037,0,0,0,.248-.34l.152.083a1.168,1.168,0,0,1-.358.453A.934.934,0,0,1,297.053,525.726Z" transform="translate(-262.376 -464.036)" fill="#fff"/>
  <path id="Path_54" data-name="Path 54" d="M316.235,521.687a.585.585,0,0,1,.17.163.622.622,0,0,1,.09.249.641.641,0,0,1-.151.537.9.9,0,0,1-.567.288.933.933,0,0,1-.365-.014.978.978,0,0,1-.252-.092l-.022.153-.168.026-.143-.764.154-.025a.873.873,0,0,0,.108.193,1.033,1.033,0,0,0,.175.189.811.811,0,0,0,.235.134.573.573,0,0,0,.286.024.507.507,0,0,0,.315-.15.35.35,0,0,0,.073-.3.341.341,0,0,0-.062-.156.361.361,0,0,0-.127-.1.92.92,0,0,0-.2-.065q-.113-.024-.252-.044a2.087,2.087,0,0,1-.247-.049.975.975,0,0,1-.241-.094.641.641,0,0,1-.19-.168.555.555,0,0,1-.105-.258.61.61,0,0,1,.13-.491.768.768,0,0,1,.509-.272,1.134,1.134,0,0,1,.271-.008.9.9,0,0,1,.232.047l.034-.125.161-.025.144.7-.154.024a.719.719,0,0,0-.263-.356.534.534,0,0,0-.4-.09.427.427,0,0,0-.274.137.294.294,0,0,0-.07.24.363.363,0,0,0,.061.162.306.306,0,0,0,.121.1.911.911,0,0,0,.182.058c.071.015.16.032.265.049a2.16,2.16,0,0,1,.3.066A.928.928,0,0,1,316.235,521.687Z" transform="translate(-279.06 -461.483)" fill="#fff"/>
  <path id="Path_55" data-name="Path 55" d="M341.28,513.29c-.085.065-.166.121-.243.171a1.083,1.083,0,0,1-.3.122.482.482,0,0,1-.418-.034.622.622,0,0,1-.213-.357l-.39-1.461-.39.1-.056-.21.4-.107-.179-.671.4-.107.179.671.619-.164.056.21-.614.164.321,1.205c.025.091.048.166.07.227a.442.442,0,0,0,.09.146.226.226,0,0,0,.132.068.476.476,0,0,0,.2-.017c.036-.01.09-.028.159-.053a.681.681,0,0,0,.143-.065Z" transform="translate(-300.807 -452.839)" fill="#fff"/>
  <path id="Path_56" data-name="Path 56" d="M358.571,511.124a1.515,1.515,0,0,1,.082.463,1.117,1.117,0,0,1-.075.434,1,1,0,0,1-.254.374,1.18,1.18,0,0,1-.408.235,1.054,1.054,0,0,1-.409.058,1.038,1.038,0,0,1-.4-.113,1.1,1.1,0,0,1-.34-.273,1.3,1.3,0,0,1-.244-.434,1.22,1.22,0,0,1,.007-.907,1.115,1.115,0,0,1,1.481-.533A1.165,1.165,0,0,1,358.571,511.124Zm-.441.159a2,2,0,0,0-.151-.329,1.134,1.134,0,0,0-.2-.269.632.632,0,0,0-.255-.151.48.48,0,0,0-.3.015.511.511,0,0,0-.254.179.638.638,0,0,0-.113.289,1.02,1.02,0,0,0,.007.33,2.235,2.235,0,0,0,.084.333,2.17,2.17,0,0,0,.166.368,1.172,1.172,0,0,0,.214.274.646.646,0,0,0,.258.151.486.486,0,0,0,.3-.017.506.506,0,0,0,.334-.406A1.463,1.463,0,0,0,358.13,511.283Z" transform="translate(-316.029 -452.468)" fill="#fff"/>
  <path id="Path_57" data-name="Path 57" d="M384.785,497.462c-.071.079-.139.15-.206.213a1.045,1.045,0,0,1-.272.177.479.479,0,0,1-.417.044.62.62,0,0,1-.277-.311l-.656-1.36-.363.175-.094-.2.371-.178-.3-.627.372-.179.3.627.577-.278.1.193-.574.275.542,1.125a2.121,2.121,0,0,0,.113.206.432.432,0,0,0,.113.127.236.236,0,0,0,.142.043.482.482,0,0,0,.19-.054c.034-.016.082-.043.145-.082a.68.68,0,0,0,.128-.091Z" transform="translate(-339.136 -439.078)" fill="#fff"/>
  <path id="Path_58" data-name="Path 58" d="M393.539,486.815l-.95.552-.075-.129.1-.066a.444.444,0,0,0,.082-.068.167.167,0,0,0,.045-.113.263.263,0,0,0-.041-.13l-.576-.993a.538.538,0,0,0-.281-.261.346.346,0,0,0-.3.026.617.617,0,0,0-.171.142.882.882,0,0,0-.113.17.554.554,0,0,0-.045.158c0,.045-.007.084-.007.113l.645,1.111a.232.232,0,0,0,.09.094.2.2,0,0,0,.12.019.5.5,0,0,0,.107-.022,1.028,1.028,0,0,0,.113-.045l.075.129-.947.549-.075-.129.088-.062a.547.547,0,0,0,.073-.062.168.168,0,0,0,.047-.113.25.25,0,0,0-.04-.13l-1.311-2.241a.372.372,0,0,0-.108-.113.274.274,0,0,0-.137-.054.327.327,0,0,0-.145.036c-.064.027-.113.05-.153.069l-.073-.126.689-.453.045.014.782,1.348.008-.006c.018-.068.035-.128.051-.183a1.106,1.106,0,0,1,.078-.186.858.858,0,0,1,.13-.18.893.893,0,0,1,.209-.162.567.567,0,0,1,.493-.068.82.82,0,0,1,.413.39l.583,1.006a.256.256,0,0,0,.09.1.191.191,0,0,0,.113.018.761.761,0,0,0,.1-.021.671.671,0,0,0,.1-.043Z" transform="translate(-345.404 -429.724)" fill="#fff"/>
  <path id="Path_59" data-name="Path 59" d="M422.186,478.974a1.134,1.134,0,0,1-.062.567.946.946,0,0,1-.35.442,1.106,1.106,0,0,1-.441.194.923.923,0,0,1-.422-.018,1.091,1.091,0,0,1-.38-.2,1.615,1.615,0,0,1-.317-.34,1.359,1.359,0,0,1-.189-.389,1.21,1.21,0,0,1-.047-.426,1,1,0,0,1,.113-.4.928.928,0,0,1,.295-.328,1.02,1.02,0,0,1,.387-.178.738.738,0,0,1,.353.008.861.861,0,0,1,.3.155,1.309,1.309,0,0,1,.256.277l.086.121-1.208.852a1.774,1.774,0,0,0,.265.3.961.961,0,0,0,.29.181.632.632,0,0,0,.308.036.709.709,0,0,0,.321-.134.622.622,0,0,0,.227-.278.933.933,0,0,0,.034-.44Zm-.9-.407a1.861,1.861,0,0,0-.173-.209.809.809,0,0,0-.2-.158.453.453,0,0,0-.214-.057.388.388,0,0,0-.227.08.489.489,0,0,0-.21.39.926.926,0,0,0,.178.548Z" transform="translate(-372.362 -423.708)" fill="#fff"/>
  <path id="Path_60" data-name="Path 60" d="M443.466,458l-.8.738-.1-.113.078-.084a.439.439,0,0,0,.064-.083.169.169,0,0,0,.022-.113.251.251,0,0,0-.068-.113l-.777-.846a.544.544,0,0,0-.33-.195.353.353,0,0,0-.289.091.618.618,0,0,0-.137.176.8.8,0,0,0-.068.188.481.481,0,0,0-.012.162.969.969,0,0,0,.018.113l.868.945a.226.226,0,0,0,.113.073.21.21,0,0,0,.122-.008.424.424,0,0,0,.1-.045.944.944,0,0,0,.1-.066l.1.113-.806.739-.1-.113.073-.079a.371.371,0,0,0,.059-.078.161.161,0,0,0,.022-.113.257.257,0,0,0-.067-.113l-.932-1.015a.315.315,0,0,0-.12-.082.276.276,0,0,0-.138-.016.318.318,0,0,0-.1.04.947.947,0,0,0-.105.074l-.1-.113.514-.54h.045l.212.227.009-.008a1.188,1.188,0,0,1,.011-.188,1.217,1.217,0,0,1,.031-.2.858.858,0,0,1,.085-.2.9.9,0,0,1,.168-.2.567.567,0,0,1,.486-.175.847.847,0,0,1,.475.288l.786.856a.268.268,0,0,0,.107.076.186.186,0,0,0,.12-.007.638.638,0,0,0,.091-.041.594.594,0,0,0,.09-.063Z" transform="translate(-390.241 -404.995)" fill="#fff"/>
  <path id="Path_61" data-name="Path 61" d="M463.325,442.272a1.134,1.134,0,0,1,.061.567.944.944,0,0,1-.247.507,1.1,1.1,0,0,1-.389.285.922.922,0,0,1-.415.073,1.089,1.089,0,0,1-.414-.113,1.6,1.6,0,0,1-.383-.262,1.373,1.373,0,0,1-.269-.34,1.2,1.2,0,0,1-.142-.4.975.975,0,0,1,.024-.412.928.928,0,0,1,.217-.384,1.038,1.038,0,0,1,.34-.257.749.749,0,0,1,.347-.067.844.844,0,0,1,.325.086,1.316,1.316,0,0,1,.311.214l.113.1-1,1.093a1.814,1.814,0,0,0,.323.238.947.947,0,0,0,.323.113.623.623,0,0,0,.308-.031.708.708,0,0,0,.286-.2.628.628,0,0,0,.164-.321.931.931,0,0,0-.061-.438Zm-.966-.2a1.812,1.812,0,0,0-.215-.167.828.828,0,0,0-.227-.113.453.453,0,0,0-.221-.008.387.387,0,0,0-.206.128.487.487,0,0,0-.12.425.926.926,0,0,0,.291.5Z" transform="translate(-408.84 -391.415)" fill="#fff"/>
  <path id="Path_62" data-name="Path 62" d="M473.5,423.5l-.624.812-.113-.092c.036-.058.066-.113.088-.151s.023-.074,0-.093a.178.178,0,0,0-.065-.02l-.091-.014-.282-.022c-.113-.008-.261-.017-.429-.025.031.122.061.238.094.347s.068.227.107.346a.409.409,0,0,0,.025.061.114.114,0,0,0,.033.047.1.1,0,0,0,.1,0,.567.567,0,0,0,.154-.127l.113.088-.506.654-.113-.086a.89.89,0,0,0,.065-.263.838.838,0,0,0-.02-.235c-.019-.074-.045-.177-.078-.308s-.08-.3-.143-.521l-.491-.023-.482-.025a.56.56,0,0,0-.193.022.374.374,0,0,0-.173.137l-.113-.092.594-.769.113.092a1.017,1.017,0,0,0-.079.113c-.024.041-.027.068-.011.08a.113.113,0,0,0,.044.017.527.527,0,0,0,.065.006l.282.024c.128.009.264.019.408.027-.025-.086-.054-.187-.088-.3s-.066-.227-.1-.322a.258.258,0,0,0-.02-.039.138.138,0,0,0-.031-.036c-.025-.019-.061-.014-.113.016a.8.8,0,0,0-.122.094l-.113-.088.5-.653.113.086a.973.973,0,0,0-.081.281.7.7,0,0,0,.013.219c.018.077.043.17.073.28s.071.263.125.461c.237.009.431.017.58.025s.3.017.463.028a.59.59,0,0,0,.214-.019.423.423,0,0,0,.188-.135Z" transform="translate(-417.044 -374.318)" fill="#fff"/>
  <path id="Path_63" data-name="Path 63" d="M482.427,411.949c-.02.1-.043.2-.069.289a1.055,1.055,0,0,1-.143.291.486.486,0,0,1-.34.251.622.622,0,0,1-.4-.127l-1.259-.839-.227.34-.18-.12.227-.34-.578-.385.227-.34.579.385.355-.534.181.121-.353.529,1.038.692a2.093,2.093,0,0,0,.2.121.424.424,0,0,0,.163.051A.245.245,0,0,0,482,412.3a.48.48,0,0,0,.136-.144c.02-.031.049-.079.084-.144a.755.755,0,0,0,.063-.144Z" transform="translate(-425.104 -364.246)" fill="#fff"/>
  <path id="Path_64" data-name="Path 64" d="M489.323,391.018l-.519.957-.131-.07.044-.1a.554.554,0,0,0,.031-.094.17.17,0,0,0-.017-.113.255.255,0,0,0-.1-.092l-2.276-1.228a.34.34,0,0,0-.151-.042.293.293,0,0,0-.143.027.483.483,0,0,0-.113.113,1.405,1.405,0,0,0-.107.141l-.128-.069.356-.763.045-.011,2.692,1.447a.261.261,0,0,0,.128.036.193.193,0,0,0,.113-.046.5.5,0,0,0,.076-.07.764.764,0,0,0,.067-.09Z" transform="translate(-430.645 -345.494)" fill="#fff"/>
  <path id="Path_65" data-name="Path 65" d="M505.939,377.345a1.149,1.149,0,0,1,.227.519.937.937,0,0,1-.083.558,1.1,1.1,0,0,1-.283.39.914.914,0,0,1-.374.2,1.1,1.1,0,0,1-.427.019,1.587,1.587,0,0,1-.444-.134,1.362,1.362,0,0,1-.359-.24,1.193,1.193,0,0,1-.257-.34.955.955,0,0,1-.1-.4.922.922,0,0,1,.09-.431,1.028,1.028,0,0,1,.245-.349.745.745,0,0,1,.31-.169.835.835,0,0,1,.34-.016,1.276,1.276,0,0,1,.361.113l.136.062-.618,1.343a1.8,1.8,0,0,0,.381.129.969.969,0,0,0,.34.011.626.626,0,0,0,.286-.124.7.7,0,0,0,.211-.277.629.629,0,0,0,.06-.356.94.94,0,0,0-.192-.4Zm-.983.1a1.791,1.791,0,0,0-.255-.093.811.811,0,0,0-.248-.039.454.454,0,0,0-.213.059.385.385,0,0,0-.158.185.485.485,0,0,0,.015.441.92.92,0,0,0,.429.385Z" transform="translate(-446.715 -334.205)" fill="#fff"/>
  <path id="Path_66" data-name="Path 66" d="M509.855,354.043a.557.557,0,0,0,0,.207.454.454,0,0,0,.13.215q.24.227.5.476t.549.515c.054.052.121.113.2.176s.153.125.227.181l-.06.167c-.383.014-.732.026-1.048.04s-.641.029-.973.046a.34.34,0,0,0-.2.082.588.588,0,0,0-.138.166l-.139-.047.353-.972.15.054a.846.846,0,0,0-.032.17c-.007.069,0,.113.032.12h.105c.166,0,.4-.014.7-.025l.721-.031-.385-.358c-.153-.144-.325-.3-.517-.472l-.092-.079a.287.287,0,0,0-.094-.056.087.087,0,0,0-.078.011.378.378,0,0,0-.081.066.633.633,0,0,0-.067.084c-.018.028-.032.052-.042.071l-.136-.05.291-.8Z" transform="translate(-451.206 -313.868)" fill="#fff"/>
  <path id="Path_67" data-name="Path 67" d="M519.784,338.738a1.146,1.146,0,0,1,.312.475.956.956,0,0,1,.01.567,1.1,1.1,0,0,1-.217.43.917.917,0,0,1-.34.254,1.084,1.084,0,0,1-.419.09,1.63,1.63,0,0,1-.46-.06,1.325,1.325,0,0,1-.393-.179,1.2,1.2,0,0,1-.311-.295,1,1,0,0,1-.166-.378.938.938,0,0,1,.018-.44,1.048,1.048,0,0,1,.185-.384.757.757,0,0,1,.279-.217.825.825,0,0,1,.329-.071,1.327,1.327,0,0,1,.374.05l.144.04-.39,1.426a1.759,1.759,0,0,0,.4.065.971.971,0,0,0,.34-.044.635.635,0,0,0,.261-.168.722.722,0,0,0,.163-.308.623.623,0,0,0,0-.359.917.917,0,0,0-.253-.362Zm-.957.258a1.738,1.738,0,0,0-.266-.051.837.837,0,0,0-.252,0,.453.453,0,0,0-.2.093.387.387,0,0,0-.125.207.483.483,0,0,0,.086.433.925.925,0,0,0,.485.311Z" transform="translate(-459.082 -300.151)" fill="#fff"/>
  <path id="Path_68" data-name="Path 68" d="M514.021,326.24l-.22,1.067-.146-.031c0-.034.008-.071.013-.113a.507.507,0,0,0,0-.1.165.165,0,0,0-.051-.108.238.238,0,0,0-.124-.058l-2.535-.521a.34.34,0,0,0-.158,0,.307.307,0,0,0-.128.067.5.5,0,0,0-.078.137,1.515,1.515,0,0,0-.062.164l-.142-.028.12-.833.04-.024,3,.617a.26.26,0,0,0,.133,0,.191.191,0,0,0,.1-.078.569.569,0,0,0,.053-.09.742.742,0,0,0,.037-.1Z" transform="translate(-452.527 -288.918)" fill="#fff"/>
  <path id="Path_69" data-name="Path 69" d="M349.458,284.475a.844.844,0,0,0-.331.079.218.218,0,0,1-.27-.071c-.031-.04-.067-.075-.1-.113C349,284.4,349.229,284.435,349.458,284.475Z" transform="translate(-309.221 -252.132)" fill="#fff"/>
  <path id="Path_70" data-name="Path 70" d="M392.3,221.964l.027.1a.189.189,0,0,0-.035.053.147.147,0,0,0-.044.009c0-.4.008-.794.017-1.194a.522.522,0,0,0,.1.128,1.1,1.1,0,0,0,.009.168.728.728,0,0,0,.031.172l-.009.049c-.009.066-.017.137-.021.2a.453.453,0,0,0,.035.2Z" transform="translate(-347.781 -195.884)" fill="#fff"/>
  <path id="Path_71" data-name="Path 71" d="M258.7,402.229v.4a.229.229,0,0,0,0,.053c0,.007.012.012.028.018a.193.193,0,0,0,.056.01h.113a.324.324,0,0,0,.257-.1.589.589,0,0,0,.113-.325h.02v.444h-.973v-.015a.588.588,0,0,0,.177-.017.034.034,0,0,0,.019-.016.139.139,0,0,0,.006-.051v-.769a.158.158,0,0,0-.006-.054.039.039,0,0,0-.019-.011.368.368,0,0,0-.068-.012.827.827,0,0,0-.113,0v-.014h.923v.366h-.019a.442.442,0,0,0-.059-.221.239.239,0,0,0-.219-.139h-.113a.4.4,0,0,0-.1.015.036.036,0,0,0-.018.016.151.151,0,0,0-.006.053v.351a.363.363,0,0,0,.193-.032.433.433,0,0,0,.078-.257h.018v.59h-.018a.432.432,0,0,0-.077-.253A.356.356,0,0,0,258.7,402.229Z" transform="translate(-229.025 -356.222)" fill="#fff"/>
  <path id="Path_72" data-name="Path 72" d="M267.95,404.627l.061-.046v.227H268a.309.309,0,0,0-.075-.147.175.175,0,0,0-.128-.061.16.16,0,0,0-.088.022.1.1,0,0,0-.047.094.093.093,0,0,0,.051.084.621.621,0,0,0,.143.046.4.4,0,0,1,.151.06.182.182,0,0,1,.061.152.167.167,0,0,1-.066.144.226.226,0,0,1-.131.037.369.369,0,0,1-.1-.009.242.242,0,0,1-.091-.065l-.062.074v-.271h.01a.91.91,0,0,0,.042.129.227.227,0,0,0,.048.073.162.162,0,0,0,.066.042.441.441,0,0,0,.092.008.12.12,0,0,0,.077-.024.1.1,0,0,0,.036-.082.113.113,0,0,0-.049-.1.384.384,0,0,0-.133-.044.34.34,0,0,1-.147-.063.173.173,0,0,1-.064-.139.184.184,0,0,1,.053-.132.174.174,0,0,1,.129-.056.242.242,0,0,1,.1.02A.351.351,0,0,0,267.95,404.627Z" transform="translate(-237.261 -358.713)" fill="#fff"/>
  <path id="Path_73" data-name="Path 73" d="M272.439,402.616v.13a.3.3,0,0,1-.024.143.138.138,0,0,1-.128.054.18.18,0,0,1-.131-.043.178.178,0,0,1-.042-.125v-.425H272v-.01a.276.276,0,0,0,.185-.143.409.409,0,0,0,.042-.2h.025v.315h.172v.043h-.172v.406a.48.48,0,0,0,.007.1.064.064,0,0,0,.066.057.078.078,0,0,0,.079-.065.7.7,0,0,0,.014-.17v-.071Z" transform="translate(-241.163 -356.426)" fill="#fff"/>
  <path id="Path_74" data-name="Path 74" d="M276.281,408.75a.09.09,0,0,1,.092.091.093.093,0,0,1-.158.066.088.088,0,0,1-.026-.066.084.084,0,0,1,.026-.065A.088.088,0,0,1,276.281,408.75Z" transform="translate(-244.877 -362.411)" fill="#fff"/>
  <path id="Path_75" data-name="Path 75" d="M280.011,402.292v.066a.952.952,0,0,1-.006.105.226.226,0,0,1-.023.078.178.178,0,0,1-.058.067.14.14,0,0,1-.073.022.161.161,0,0,1-.087-.026.226.226,0,0,1-.069-.068.488.488,0,0,0-.057-.077.1.1,0,0,0-.065-.018c-.016,0-.032.012-.045.035a.241.241,0,0,0-.027.126h-.025a.429.429,0,0,1,.085-.29.443.443,0,0,1,.156-.1.227.227,0,0,0,.113-.113.382.382,0,0,0,.037-.172.481.481,0,0,0-.032-.171.168.168,0,0,0-.059-.09.131.131,0,0,0-.07-.016.178.178,0,0,0-.151.1.34.34,0,0,0-.052.175.128.128,0,0,0,0,.026.066.066,0,0,1,.019-.032.045.045,0,0,1,.031-.01.056.056,0,0,1,.04.017.1.1,0,0,1,.025.051.1.1,0,0,1,0,.028.113.113,0,0,1-.023.069.066.066,0,0,1-.054.028.056.056,0,0,1-.028,0,.085.085,0,0,1-.041-.049.252.252,0,0,1-.014-.087.361.361,0,0,1,.064-.211.236.236,0,0,1,.2-.113.267.267,0,0,1,.241.126.4.4,0,0,1,.058.215.227.227,0,0,1-.042.151.259.259,0,0,1-.155.083.612.612,0,0,0-.227.084.248.248,0,0,0-.083.128.056.056,0,0,1,.036-.01c.007,0,.061.013.161.039a.5.5,0,0,0,.125.018h.023l.035-.006a.094.094,0,0,0,.07-.049.179.179,0,0,0,.014-.078v-.047Z" transform="translate(-247.777 -356.104)" fill="#fff"/>
  <path id="Path_76" data-name="Path 76" d="M285.526,402.611a.262.262,0,0,1-.217-.134.7.7,0,0,1,0-.722.245.245,0,0,1,.438,0,.707.707,0,0,1,0,.719.273.273,0,0,1-.221.137Zm0-.014c.04,0,.07-.041.09-.121a1.586,1.586,0,0,0,.024-.359v-.288c-.01-.128-.049-.193-.113-.193-.039,0-.068.041-.088.12a1.661,1.661,0,0,0-.029.361v.29C285.412,402.533,285.455,402.6,285.526,402.6Z" transform="translate(-252.875 -356.089)" fill="#fff"/>
  <path id="Path_77" data-name="Path 77" d="M291.64,401.705a1.164,1.164,0,0,0,.246-.017.273.273,0,0,0,.12-.068h.022v.88a.172.172,0,0,0,.006.056.048.048,0,0,0,.02.012.282.282,0,0,0,.061.011.886.886,0,0,0,.1,0v.014h-.574v-.014a1.1,1.1,0,0,0,.113,0,.3.3,0,0,0,.064-.011.047.047,0,0,0,.023-.016.148.148,0,0,0,.006-.052v-.7a.1.1,0,0,0-.009-.051.046.046,0,0,0-.026-.018.175.175,0,0,0-.053-.009h-.113Z" transform="translate(-258.576 -356.089)" fill="#fff"/>
  <path id="Path_78" data-name="Path 78" d="M297.672,401.708a.17.17,0,0,1,.05-.075.173.173,0,0,1,.079-.015c.042,0,.088.032.139.094s.088.093.113.093a.084.084,0,0,0,.078-.05.3.3,0,0,0,.026-.137h.018a.239.239,0,0,1,0,.032.355.355,0,0,1-.025.128.514.514,0,0,1-.054.113,1.411,1.411,0,0,0-.086.142.847.847,0,0,0-.045.333.508.508,0,0,1-.024.187.078.078,0,0,1-.075.054.076.076,0,0,1-.062-.028.189.189,0,0,1-.027-.113.392.392,0,0,1,.033-.141,1.5,1.5,0,0,1,.142-.251c.035-.053.07-.107.107-.159a.7.7,0,0,0,.066-.113.3.3,0,0,1-.046.017.178.178,0,0,1-.043,0,.354.354,0,0,1-.058-.006l-.082-.023a.375.375,0,0,0-.1-.017.154.154,0,0,0-.058.011.131.131,0,0,0-.068.1.434.434,0,0,0-.012.105h-.018v-.255a.88.88,0,0,0-.009-.12h.018Z" transform="translate(-263.887 -356.087)" fill="#fff"/>
  <path id="Path_79" data-name="Path 79" d="M90.246,176.8A22.025,22.025,0,0,0,94.2,193.38V194a23.275,23.275,0,0,1-3.9-8.819,22.241,22.241,0,0,1,4.625-19.4,1.311,1.311,0,0,1,.159-.159c.012-.01.041,0,.168,0-.108.145-.17.235-.238.321A21.8,21.8,0,0,0,90.246,176.8Z" transform="translate(-79.536 -146.844)" fill="#e52d27"/>
  <path id="Path_80" data-name="Path 80" d="M92.3,395.711a2.652,2.652,0,0,1,3.194,1.006A2.261,2.261,0,0,1,92.3,395.711Z" transform="translate(-81.835 -350.675)" fill="#fff"/>
  <path id="Path_81" data-name="Path 81" d="M84.19,376.746a2.641,2.641,0,0,1,3,1.326A2.168,2.168,0,0,1,84.19,376.746Z" transform="translate(-74.645 -333.957)" fill="#fff"/>
  <path id="Path_82" data-name="Path 82" d="M80.851,358.389a2.173,2.173,0,0,1-2.791-1.634A2.558,2.558,0,0,1,80.851,358.389Z" transform="translate(-69.209 -316.247)" fill="#fff"/>
  <path id="Path_83" data-name="Path 83" d="M73.92,336.317a2.543,2.543,0,0,1,2.524,1.9C75.427,338.623,74.057,337.606,73.92,336.317Z" transform="translate(-65.539 -298.184)" fill="#fff"/>
  <path id="Path_84" data-name="Path 84" d="M73.981,317.73a2.1,2.1,0,0,1-2.261-2.118A2.443,2.443,0,0,1,73.981,317.73Z" transform="translate(-63.588 -279.829)" fill="#fff"/>
  <path id="Path_85" data-name="Path 85" d="M73.439,296.754a2.068,2.068,0,0,1-1.978-2.344A2.47,2.47,0,0,1,73.439,296.754Z" transform="translate(-63.349 -261.033)" fill="#fff"/>
  <path id="Path_86" data-name="Path 86" d="M73.1,273.61a2.379,2.379,0,0,1,1.662,2.494A2,2,0,0,1,73.1,273.61Z" transform="translate(-64.785 -242.591)" fill="#fff"/>
  <path id="Path_87" data-name="Path 87" d="M76.344,253a2.408,2.408,0,0,1,1.38,2.64C76.669,255.494,76.059,254.326,76.344,253Z" transform="translate(-67.626 -224.318)" fill="#fff"/>
  <path id="Path_88" data-name="Path 88" d="M82.436,235.535c-1.156-.291-1.427-1.7-1.052-2.745C82.221,233.165,82.606,234.174,82.436,235.535Z" transform="translate(-72.017 -206.399)" fill="#fff"/>
  <path id="Path_89" data-name="Path 89" d="M88.12,213.44a2.385,2.385,0,0,1,.7,2.793C87.772,215.892,87.646,214.448,88.12,213.44Z" transform="translate(-77.896 -189.243)" fill="#fff"/>
  <path id="Path_90" data-name="Path 90" d="M96.7,197.747c-.85-.453-1-1.563-.388-2.817C97.081,195.343,97.134,196.7,96.7,197.747Z" transform="translate(-85.063 -172.831)" fill="#fff"/>
  <path id="Path_91" data-name="Path 91" d="M106.147,177.49c.653.492.548,1.814.031,2.789C105.36,179.8,105.433,178.455,106.147,177.49Z" transform="translate(-93.616 -157.368)" fill="#fff"/>
  <path id="Path_92" data-name="Path 92" d="M117.11,163.845a2,2,0,0,1,.285-2.765C117.92,161.654,117.808,162.79,117.11,163.845Z" transform="translate(-103.446 -142.819)" fill="#fff"/>
  <path id="Path_93" data-name="Path 93" d="M129.354,148.787c-.68-.728-.135-2,.61-2.657C130.438,146.682,130.094,147.843,129.354,148.787Z" transform="translate(-114.414 -129.564)" fill="#fff"/>
  <path id="Path_94" data-name="Path 94" d="M139.82,145.833a2.959,2.959,0,0,1,2.132-2.213A3.675,3.675,0,0,1,139.82,145.833Z" transform="translate(-123.968 -127.338)" fill="#fff"/>
  <path id="Path_95" data-name="Path 95" d="M124.839,385.3a1.339,1.339,0,0,1-.5,1.927A1.253,1.253,0,0,1,124.839,385.3Z" transform="translate(-109.998 -341.619)" fill="#fff"/>
  <path id="Path_96" data-name="Path 96" d="M115.345,371.781a1.249,1.249,0,0,1,.641-1.851A1.287,1.287,0,0,1,115.345,371.781Z" transform="translate(-102.104 -327.992)" fill="#fff"/>
  <path id="Path_97" data-name="Path 97" d="M107.836,355.554a1.2,1.2,0,0,1,.772-1.744A1.26,1.26,0,0,1,107.836,355.554Z" transform="translate(-95.496 -313.699)" fill="#fff"/>
  <path id="Path_98" data-name="Path 98" d="M102.541,336.79a1.234,1.234,0,0,1-.853,1.657A1.162,1.162,0,0,1,102.541,336.79Z" transform="translate(-90.036 -298.609)" fill="#fff"/>
  <path id="Path_99" data-name="Path 99" d="M98.495,319.549a1.229,1.229,0,0,1-.983,1.545A1.132,1.132,0,0,1,98.495,319.549Z" transform="translate(-86.388 -283.322)" fill="#fff"/>
  <path id="Path_100" data-name="Path 100" d="M94.963,303.269a1.131,1.131,0,0,1,1.069-1.45A1.181,1.181,0,0,1,94.963,303.269Z" transform="translate(-84.177 -267.602)" fill="#fff"/>
  <path id="Path_101" data-name="Path 101" d="M93.961,285.166a1.14,1.14,0,0,1,1.164-1.368A1.2,1.2,0,0,1,93.961,285.166Z" transform="translate(-83.304 -251.624)" fill="#fff"/>
  <path id="Path_102" data-name="Path 102" d="M94.59,267.027c.068-.84.532-1.3,1.247-1.24A1.143,1.143,0,0,1,94.59,267.027Z" transform="translate(-83.865 -235.65)" fill="#fff"/>
  <path id="Path_103" data-name="Path 103" d="M98.482,247.99c-.128.814-.646,1.247-1.322,1.134A1.145,1.145,0,0,1,98.482,247.99Z" transform="translate(-86.144 -219.868)" fill="#fff"/>
  <path id="Path_104" data-name="Path 104" d="M102.816,230.329c-.213.787-.735,1.167-1.376,1C101.6,230.543,102.208,230.1,102.816,230.329Z" transform="translate(-89.939 -204.164)" fill="#fff"/>
  <path id="Path_105" data-name="Path 105" d="M107.34,213.959c.212-.709.917-1.247,1.44-.907C108.469,213.814,108.032,214.093,107.34,213.959Z" transform="translate(-95.17 -188.806)" fill="#fff"/>
  <path id="Path_106" data-name="Path 106" d="M115,197.528c.34-.762.907-1.067,1.474-.8A1.165,1.165,0,0,1,115,197.528Z" transform="translate(-101.962 -174.34)" fill="#fff"/>
  <path id="Path_107" data-name="Path 107" d="M124.43,181.582c.317-.6,1-1.031,1.506-.68C125.564,181.588,124.966,181.858,124.43,181.582Z" transform="translate(-110.323 -160.282)" fill="#fff"/>
  <path id="Path_108" data-name="Path 108" d="M135.32,166.653c.314-.516,1.091-.968,1.517-.567C136.519,166.628,135.712,167.041,135.32,166.653Z" transform="translate(-119.978 -147.121)" fill="#fff"/>
  <path id="Path_109" data-name="Path 109" d="M430.747,167.806a22.023,22.023,0,0,1-3.958,16.583V185a23.275,23.275,0,0,0,3.9-8.819,22.241,22.241,0,0,0-4.625-19.4,1.307,1.307,0,0,0-.159-.159c-.012-.01-.041,0-.168,0,.113.145.17.235.238.321A21.817,21.817,0,0,1,430.747,167.806Z" transform="translate(-377.474 -138.864)" fill="#e52d27"/>
  <path id="Path_110" data-name="Path 110" d="M447.094,386.792A2.652,2.652,0,0,0,443.9,387.8,2.259,2.259,0,0,0,447.094,386.792Z" transform="translate(-393.575 -342.768)" fill="#fff"/>
  <path id="Path_111" data-name="Path 111" d="M456.684,367.832a2.639,2.639,0,0,0-3,1.325A2.17,2.17,0,0,0,456.684,367.832Z" transform="translate(-402.246 -326.053)" fill="#fff"/>
  <path id="Path_112" data-name="Path 112" d="M461.69,349.469a2.173,2.173,0,0,0,2.791-1.634A2.558,2.558,0,0,0,461.69,349.469Z" transform="translate(-409.348 -308.338)" fill="#fff"/>
  <path id="Path_113" data-name="Path 113" d="M470.714,327.4a2.546,2.546,0,0,0-2.524,1.9C469.207,329.7,470.576,328.687,470.714,327.4Z" transform="translate(-415.111 -290.277)" fill="#fff"/>
  <path id="Path_114" data-name="Path 114" d="M472.71,308.816a2.1,2.1,0,0,0,2.261-2.117A2.437,2.437,0,0,0,472.71,308.816Z" transform="translate(-419.119 -271.926)" fill="#fff"/>
  <path id="Path_115" data-name="Path 115" d="M475.37,287.836a2.07,2.07,0,0,0,1.978-2.346A2.471,2.471,0,0,0,475.37,287.836Z" transform="translate(-421.478 -253.125)" fill="#fff"/>
  <path id="Path_116" data-name="Path 116" d="M478,264.69a2.379,2.379,0,0,0-1.662,2.494A2,2,0,0,0,478,264.69Z" transform="translate(-422.338 -234.683)" fill="#fff"/>
  <path id="Path_117" data-name="Path 117" d="M476.571,244.09a2.408,2.408,0,0,0-1.38,2.64C476.246,246.581,476.857,245.415,476.571,244.09Z" transform="translate(-421.306 -216.418)" fill="#fff"/>
  <path id="Path_118" data-name="Path 118" d="M472.172,226.643c1.156-.29,1.427-1.7,1.052-2.743C472.391,224.273,472.005,225.272,472.172,226.643Z" transform="translate(-418.608 -198.517)" fill="#fff"/>
  <path id="Path_119" data-name="Path 119" d="M467.528,204.53a2.383,2.383,0,0,0-.7,2.792C467.876,206.981,468,205.538,467.528,204.53Z" transform="translate(-413.77 -181.343)" fill="#fff"/>
  <path id="Path_120" data-name="Path 120" d="M459.59,188.827c.85-.453,1-1.563.388-2.817C459.209,186.423,459.159,187.779,459.59,188.827Z" transform="translate(-407.246 -164.922)" fill="#fff"/>
  <path id="Path_121" data-name="Path 121" d="M450.3,168.57c-.653.493-.548,1.814-.031,2.79C451.082,170.876,451.01,169.534,450.3,168.57Z" transform="translate(-398.843 -149.46)" fill="#fff"/>
  <path id="Path_122" data-name="Path 122" d="M439.059,154.925a2,2,0,0,0-.285-2.765C438.249,152.735,438.362,153.87,439.059,154.925Z" transform="translate(-388.74 -134.91)" fill="#fff"/>
  <path id="Path_123" data-name="Path 123" d="M426.108,139.867c.68-.727.135-2-.61-2.657C425.021,137.767,425.369,138.923,426.108,139.867Z" transform="translate(-377.065 -121.655)" fill="#fff"/>
  <path id="Path_124" data-name="Path 124" d="M407.872,136.923a2.956,2.956,0,0,0-2.132-2.213A3.667,3.667,0,0,0,407.872,136.923Z" transform="translate(-359.741 -119.438)" fill="#fff"/>
  <path id="Path_125" data-name="Path 125" d="M431.726,376.38a1.339,1.339,0,0,0,.5,1.927A1.253,1.253,0,0,0,431.726,376.38Z" transform="translate(-382.583 -333.711)" fill="#fff"/>
  <path id="Path_126" data-name="Path 126" d="M441.117,362.862a1.25,1.25,0,0,0-.641-1.852A1.288,1.288,0,0,0,441.117,362.862Z" transform="translate(-390.375 -320.083)" fill="#fff"/>
  <path id="Path_127" data-name="Path 127" d="M448.548,346.634a1.2,1.2,0,0,0-.772-1.744A1.257,1.257,0,0,0,448.548,346.634Z" transform="translate(-396.905 -305.791)" fill="#fff"/>
  <path id="Path_128" data-name="Path 128" d="M453.342,327.88a1.233,1.233,0,0,0,.853,1.656A1.161,1.161,0,0,0,453.342,327.88Z" transform="translate(-401.863 -290.709)" fill="#fff"/>
  <path id="Path_129" data-name="Path 129" d="M457.4,310.639a1.227,1.227,0,0,0,.983,1.544A1.133,1.133,0,0,0,457.4,310.639Z" transform="translate(-405.528 -275.422)" fill="#fff"/>
  <path id="Path_130" data-name="Path 130" d="M460.7,294.349a1.131,1.131,0,0,0-1.069-1.45A1.181,1.181,0,0,0,460.7,294.349Z" transform="translate(-407.5 -259.693)" fill="#fff"/>
  <path id="Path_131" data-name="Path 131" d="M461.188,276.287a1.14,1.14,0,0,0-1.164-1.369A1.208,1.208,0,0,0,461.188,276.287Z" transform="translate(-407.866 -243.751)" fill="#fff"/>
  <path id="Path_132" data-name="Path 132" d="M460.006,258.108c-.068-.84-.532-1.3-1.247-1.241A1.142,1.142,0,0,0,460.006,258.108Z" transform="translate(-406.747 -227.741)" fill="#fff"/>
  <path id="Path_133" data-name="Path 133" d="M455.55,239.07c.128.815.646,1.247,1.322,1.134A1.148,1.148,0,0,0,455.55,239.07Z" transform="translate(-403.904 -211.96)" fill="#fff"/>
  <path id="Path_134" data-name="Path 134" d="M450.79,221.415c.213.786.735,1.165,1.376,1C452,221.628,451.4,221.188,450.79,221.415Z" transform="translate(-399.684 -196.261)" fill="#fff"/>
  <path id="Path_135" data-name="Path 135" d="M445.731,205.111c-.213-.709-.918-1.247-1.441-.9C444.605,204.96,445.043,205.239,445.731,205.111Z" transform="translate(-393.921 -180.963)" fill="#fff"/>
  <path id="Path_136" data-name="Path 136" d="M437.814,188.609c-.34-.761-.907-1.067-1.474-.8A1.166,1.166,0,0,0,437.814,188.609Z" transform="translate(-386.872 -166.432)" fill="#fff"/>
  <path id="Path_137" data-name="Path 137" d="M428.166,172.692c-.317-.6-1-1.031-1.506-.68C427.032,172.692,427.629,172.964,428.166,172.692Z" transform="translate(-378.29 -152.399)" fill="#fff"/>
  <path id="Path_138" data-name="Path 138" d="M417.187,157.733c-.314-.516-1.091-.968-1.517-.567C415.987,157.708,416.795,158.121,417.187,157.733Z" transform="translate(-368.546 -139.212)" fill="#fff"/>
</svg>
